<?xml version="1.0" encoding="UTF-8" standalone="no"?>
<svg
   version="1.1"
   preserveAspectRatio="none"
   x="0px"
   y="0px"
   width="88"
   height="88"
   viewBox="0 0 88 87.999997"
   id="svg5454"
   sodipodi:docname="icon.svg"
   inkscape:version="1.2.2 (b0a8486541, 2022-12-01)"
   xmlns:inkscape="http://www.inkscape.org/namespaces/inkscape"
   xmlns:sodipodi="http://sodipodi.sourceforge.net/DTD/sodipodi-0.dtd"
   xmlns:xlink="http://www.w3.org/1999/xlink"
   xmlns="http://www.w3.org/2000/svg"
   xmlns:svg="http://www.w3.org/2000/svg">
  <sodipodi:namedview
     id="namedview5456"
     pagecolor="#ffffff"
     bordercolor="#000000"
     borderopacity="0.25"
     inkscape:showpageshadow="2"
     inkscape:pageopacity="0.0"
     inkscape:pagecheckerboard="0"
     inkscape:deskcolor="#d1d1d1"
     showgrid="false"
     inkscape:zoom="3.4692426"
     inkscape:cx="-1.7294841"
     inkscape:cy="72.494209"
     inkscape:window-width="1920"
     inkscape:window-height="961"
     inkscape:window-x="0"
     inkscape:window-y="0"
     inkscape:window-maximized="1"
     inkscape:current-layer="g2952" />
  <defs
     id="defs279">
    <radialGradient
       id="Gradient_1"
       gradientUnits="userSpaceOnUse"
       cx="0"
       cy="0"
       r="13.5875"
       fx="0"
       fy="0"
       spreadMethod="pad">
      <stop
         offset="0%"
         stop-color="#000000"
         stop-opacity="0.30196078431372547"
         id="stop2" />
      <stop
         offset="100%"
         stop-color="#000000"
         stop-opacity="0"
         id="stop4" />
    </radialGradient>
    <filter
       id="Filter_1"
       x="-0.20121769"
       y="-0.43116025"
       width="1.4024354"
       height="1.6086968"
       color-interpolation-filters="sRGB">
      <feFlood
         flood-color="#000000"
         flood-opacity="1"
         in="SourceGraphic"
         result="result1"
         id="feFlood7" />
      <feComposite
         in2="SourceGraphic"
         in="result1"
         operator="in"
         result="result2"
         id="feComposite9" />
      <feColorMatrix
         in="SourceGraphic"
         type="matrix"
         values="0 0 0 0 255 0 0 0 0 255 0 0 0 0 255 0 0 0 255 0"
         result="result3"
         id="feColorMatrix11" />
      <feOffset
         dx="-1.4695761589768238e-15"
         dy="-8"
         in="SourceGraphic"
         result="result4"
         id="feOffset13" />
      <feGaussianBlur
         in="result4"
         stdDeviation="3.3333333333333335,3.3333333333333335"
         result="result5"
         id="feGaussianBlur15" />
      <feComposite
         in2="result5"
         in="result2"
         operator="out"
         result="result6"
         id="feComposite17" />
      <feOffset
         dx="-1.4695761589768238e-15"
         dy="-8"
         in="result3"
         result="result7"
         id="feOffset19" />
      <feComposite
         in2="result3"
         in="result7"
         operator="in"
         result="result8"
         id="feComposite21" />
      <feComposite
         in2="result8"
         in="SourceGraphic"
         operator="in"
         result="result9"
         id="feComposite23" />
      <feBlend
         mode="normal"
         in2="result9"
         in="result6"
         result="result10"
         id="feBlend25" />
      <feComposite
         in2="result3"
         in="result10"
         operator="in"
         result="result11"
         id="feComposite27" />
      <feFlood
         flood-color="#FFFFFF"
         flood-opacity="1"
         in="result11"
         result="result12"
         id="feFlood29" />
      <feFlood
         flood-color="#000000"
         flood-opacity="1"
         in="result11"
         result="result13"
         id="feFlood31" />
      <feComposite
         in2="result11"
         in="result13"
         operator="in"
         result="result14"
         id="feComposite33" />
      <feColorMatrix
         in="result14"
         type="matrix"
         values="0 0 0 0 255 0 0 0 0 255 0 0 0 0 255 0 0 0 255 0"
         result="result15"
         id="feColorMatrix35" />
      <feComposite
         in2="result11"
         in="result12"
         operator="in"
         result="result16"
         id="feComposite37" />
      <feGaussianBlur
         in="result14"
         stdDeviation="1.3333333333333333,1.3333333333333333"
         result="result17"
         id="feGaussianBlur39" />
      <feComposite
         in2="result17"
         in="result16"
         operator="out"
         result="result18"
         id="feComposite41" />
      <feBlend
         mode="normal"
         in2="result11"
         in="result18"
         result="result19"
         id="feBlend43" />
      <feComposite
         in2="result15"
         in="result19"
         operator="in"
         result="result20"
         id="feComposite45" />
    </filter>
    <g
       id="Symbol_1_0_Layer0_0_MEMBER_0_FILL">
      <path
         fill="#454a51"
         stroke="none"
         d="m -16.4,-34.65 -3.7,-0.2 q -0.6,-0.05 -1.1,0.4 -0.5,0.45 -0.55,1.1 -0.35,7.05 -5.6,12.4 -0.45,0.35 -0.45,1 -0.05,0.7 0.35,1.15 v 0.05 q 0.05,-0.05 0.1,-0.1 7.75,-6.75 10.4,-14.85 0.15,-0.5 0.55,-0.95 z"
         id="path48" />
      <path
         fill="#3c3e41"
         stroke="none"
         d="m -5.95,-34.05 -10.45,-0.6 q -0.4,0.45 -0.55,0.95 -2.65,8.1 -10.4,14.85 -0.05,0.05 -0.1,0.1 0.45,0.45 1.05,0.55 16.5,1.75 21.9,-13.65 0.15,-0.55 0.05,-1 -0.15,-0.5 -0.55,-0.8 -0.45,-0.4 -0.95,-0.4 z"
         id="path50" />
    </g>
    <g
       id="Symbol_1_0_Layer0_0_MEMBER_1_FILL">
      <path
         fill="#3c3e41"
         stroke="none"
         d="m 17,-33.7 q -0.15,-0.5 -0.55,-0.95 L 6,-34.05 q -0.5,0 -0.95,0.4 -0.4,0.3 -0.55,0.8 -0.1,0.45 0.05,1 5.4,15.4 21.9,13.65 0.6,-0.1 1.05,-0.55 -0.05,-0.05 -0.1,-0.1 Q 19.65,-25.6 17,-33.7 Z"
         id="path53" />
      <path
         fill="#454a51"
         stroke="none"
         d="m 21.8,-33.35 q -0.05,-0.65 -0.55,-1.1 -0.5,-0.45 -1.1,-0.4 l -3.7,0.2 q 0.4,0.45 0.55,0.95 2.65,8.1 10.4,14.85 0.05,0.05 0.1,0.1 v -0.05 q 0.4,-0.45 0.35,-1.15 0,-0.65 -0.45,-1 -5.25,-5.35 -5.6,-12.4 z"
         id="path55" />
    </g>
    <g
       id="arm_0_Layer0_0_FILL">
      <path
         fill="#bf7958"
         stroke="none"
         d="M 4.85,17.35 Q 5.5,20.9 5.75,22.85 6,24.8 8.15,25 10.2,25.15 11.8,23.8 13.4,22.45 13.6,20.45 14,16 12.95,11.9 L 4.2,15.15 q 0.45,1.15 0.65,2.2 z"
         id="path58" />
      <path
         fill="#3dbf7b"
         stroke="none"
         d="M 0.3,8.75 Q 1.55,10.4 2.5,11.9 L 11.6,8.05 Q 10.7,6 9.4,4 6.8,0 2.6,-3.7 1,-5.1 -1.1,-5 -3.25,-4.9 -4.6,-3.35 -6.1,-1.9 -6,0.2 q 0.1,2.05 1.7,3.4 2.8,2.5 4.6,5.15 z"
         id="path60" />
      <path
         fill="#25a863"
         stroke="none"
         d="M 12.95,11.9 14,11.45 12.9,7.5 11.6,8.05 2.5,11.9 l -0.9,0.35 1.3,3.4 1.3,-0.5 z"
         id="path62" />
    </g>
    <g
       id="leg_0_Layer0_0_FILL">
      <path
         fill="#ffffff"
         stroke="none"
         d="M 10.9,23 11,20 H -3.95 v 3 z"
         id="path65" />
      <path
         fill="#bfd4e5"
         stroke="none"
         d="M 11,20 Q 6.15,18.65 5.25,14 h -9.2 v 6 z"
         id="path67" />
      <path
         fill="#bf7958"
         stroke="none"
         d="M 5.25,14 H 5.3 L 5.45,9 h -9.4 v 5 z"
         id="path69" />
      <path
         fill="#676ac6"
         stroke="none"
         d="M 5.9,-0.2 Q 5.9,-2.6 4,-4.3 2.15,-6 -0.55,-6 -3.2,-6 -5.1,-4.3 -7,-2.6 -7,-0.2 -4.05,2.2 -3.95,9 h 9.4 z"
         id="path71" />
    </g>
    <g
       id="legBend_0_Layer0_0_FILL">
      <path
         fill="#bfd4e5"
         stroke="none"
         d="m 16,20.05 q -4.992969,-1.929883 -4.5,-6.8 L -0.3,11.6 -1.5,17.4 Z"
         id="path74" />
      <path
         fill="#ffffff"
         stroke="none"
         d="M 15.45,23 16,20.05 -1.5,17.4 -2.05,20.35 Z"
         id="path76" />
      <path
         fill="#676ac6"
         stroke="none"
         d="M 0.1,7.85 11.05,6.7 Q 9.3,-0.85 2,-5.15 q -2.15,-1.3 -4.55,-0.65 -2.35,0.6 -3.6,2.7 -1.0677734,1.8365234 -0.8,3.85 6.54980469,2.378125 7.05,7.1 z"
         id="path78" />
      <path
         fill="#bf7958"
         stroke="none"
         d="M 11.5,13.25 Q 11.65,9.7 11.05,6.7 L 0.1,7.85 q 0.19980469,1.7287109 -0.4,3.75 z"
         id="path80" />
    </g>
    <g
       id="bodyBack_0_Layer0_0_FILL">
      <path
         fill="#bf7958"
         stroke="none"
         d="m 7.05,-15.75 q 2.7,-2.3 3,-5.5 0,-0.15 0,-0.3 0.05,-0.25 0.05,-0.5 0,-3.7 -3.05,-6.4 Q 3.9,-31 -0.5,-31 q -4.4,0 -7.55,2.55 -3.05,2.7 -3.05,6.4 0,0.25 0.05,0.5 0,0.2 0.05,0.4 0.25,3.15 2.95,5.4 3.15,2.65 7.55,2.65 4.4,0 7.55,-2.65 z"
         id="path83" />
    </g>
    <g
       id="bodyBack_0_Layer0_1_FILL">
      <path
         fill="#25a863"
         stroke="none"
         d="m -13.9,-1.5 h 2.95 q 0.75,-4.25 -4.55,-8 l 0.2,0.8 q 1.05,3.35 1.4,7.2 m 28.2,-7.2 0.2,-0.8 q -5.3,3.75 -4.5,8 h 2.95 q 0.35,-3.85 1.35,-7.2 z"
         id="path86" />
      <path
         fill="#676ac6"
         stroke="none"
         d="m 12.15,8 q 0.65,-2.4 0.6,-4.55 h -26.5 Q -13.8,5.6 -13.15,8 Z"
         id="path88" />
      <path
         fill="#3c3e41"
         stroke="none"
         d="M 14.1,-1.5 H 12.95 10 -10.95 -13.9 -15.05 l 0.75,4.95 h 0.55 26.5 0.6 z"
         id="path90" />
      <path
         fill="#3dbf7b"
         stroke="none"
         d="m 15.65,-21.1 q -0.25,0 -0.5,0 h -31.3 q -3.65,-0.2 -2.6,5.25 2.2,3.15 3.45,7.15 l -0.2,-0.8 q 5.3,3.75 4.55,8 H 10 q -0.8,-4.25 4.5,-8 l -0.2,0.8 q 1.25,-4 3.45,-7.15 1,-5.05 -2.1,-5.25 z"
         id="path92" />
    </g>
    <g
       id="hand_0_Layer0_0_FILL">
      <path
         fill="#a8603f"
         stroke="none"
         d="M -8.35,7.6 -8.4,6.65 Q -7.9,0.45 -3.8,-3 -13.2,3.55 -8.4,7.65 Z"
         id="path95" />
      <path
         fill="#bf7958"
         stroke="none"
         d="m 4.2,-3 h -8 Q -7.9,0.45 -8.4,6.65 L -8.35,7.6 -8.4,7.65 q -0.05,1.65 0,3.55 v 0.35 q 0,1.45 2.05,1.85 3.1,0.65 6,0.6 7.4,-0.05 4.55,-17 z"
         id="path97" />
    </g>
    <g
       id="body_0_Layer0_0_FILL">
      <path
         fill="#676ac6"
         stroke="none"
         d="M -13.75,3.45 Q -13.8,5.6 -13.15,8 h 25.3 q 0.65,-2.4 0.6,-4.55 z"
         id="path100" />
      <path
         fill="#25a863"
         stroke="none"
         d="m -13.9,-1.5 h 2.95 q 0.75,-4.25 -4.55,-8 l 0.2,0.8 q 1.05,3.35 1.4,7.2 m 28.2,-7.2 0.2,-0.8 q -5.3,3.75 -4.5,8 h 2.95 Q 13.3,-5.35 14.3,-8.7 M 9.45,-9.1 q 0,-0.85 -2.85,-1.5 -2.95,-0.5 -7.1,-0.5 -4.15,0 -7.1,0.5 -2.85,0.65 -2.85,1.5 0,0.85 2.85,1.35 2.95,0.65 7.1,0.65 4.15,0 7.1,-0.65 2.85,-0.5 2.85,-1.35 z"
         id="path102" />
      <path
         fill="#3c3e41"
         stroke="none"
         d="M 14.1,-1.5 H 12.95 10 -10.95 -13.9 -15.05 l 0.75,4.95 h 0.55 26.5 0.6 z"
         id="path104" />
      <path
         fill="#3dbf7b"
         stroke="none"
         d="m 17.75,-15.85 q 1,-5.05 -2.1,-5.25 -0.25,0 -0.5,0 h -31.3 q -3.65,-0.2 -2.6,5.25 2.2,3.15 3.45,7.15 l -0.2,-0.8 q 5.3,3.75 4.55,8 H 10 q -0.8,-4.25 4.5,-8 l -0.2,0.8 q 1.25,-4 3.45,-7.15 M 6.6,-10.6 q 2.85,0.65 2.85,1.5 0,0.85 -2.85,1.35 -2.95,0.65 -7.1,0.65 -4.15,0 -7.1,-0.65 -2.85,-0.5 -2.85,-1.35 0,-0.85 2.85,-1.5 2.95,-0.5 7.1,-0.5 4.15,0 7.1,0.5 z"
         id="path106" />
    </g>
    <g
       id="body_0_Layer0_1_FILL">
      <path
         fill="#ffffff"
         stroke="none"
         d="m 10.05,-21.25 q -0.3,3.2 -3,5.5 -3.15,2.65 -7.55,2.65 -4.4,0 -7.55,-2.65 -2.7,-2.25 -2.95,-5.4 -0.55,1.25 -0.55,2.6 0,0.25 0.05,0.5 0.15,3.1 3.15,5.25 3.25,2.45 7.85,2.45 4.6,0 7.9,-2.45 3,-2.15 3.15,-5.25 0.05,-0.25 0.05,-0.5 0,-1.4 -0.55,-2.7 z"
         id="path109" />
      <path
         fill="#bf7958"
         stroke="none"
         d="m 10.1,-22.05 q 0,-3.7 -3.05,-6.4 Q 3.9,-31 -0.5,-31 q -4.4,0 -7.55,2.55 -3.05,2.7 -3.05,6.4 0,0.25 0.05,0.5 0,0.2 0.05,0.4 0.25,3.15 2.95,5.4 3.15,2.65 7.55,2.65 4.4,0 7.55,-2.65 2.7,-2.3 3,-5.5 0,-0.15 0,-0.3 0.05,-0.25 0.05,-0.5 z"
         id="path111" />
    </g>
    <g
       id="shadow_0_Layer0_0_FILL">
      <path
         fill="url(#Gradient_1)"
         stroke="none"
         d="m 9.45,-9.55 q -3.9,-3.9 -9.45,-3.9 -5.55,0 -9.55,3.9 -3.9,4 -3.9,9.55 0,5.55 3.9,9.45 4,4 9.55,4 5.55,0 9.45,-4 4,-3.9 4,-9.45 0,-5.55 -4,-9.55 z"
         id="path114" />
    </g>
    <g
       id="headFocus_0_Layer0_0_FILL">
      <path
         fill="#3c3e41"
         stroke="none"
         d="m 23.75,-18.55 q -0.55,-7.2 -7.2,-12.45 -7.25,-5.75 -17.5,-5.75 -10.25,0 -17.5,5.75 -6.6,5.25 -7.15,12.45 0.55,8.15 7.15,14.05 7.25,6.5 17.5,6.5 10.25,0 17.5,-6.5 6.65,-5.9 7.2,-14.05 z"
         id="path117" />
      <path
         fill="#454a51"
         stroke="none"
         d="m 23.8,-20 q 0,-9.1 -7.25,-15.6 -7.25,-6.4 -17.5,-6.4 -10.25,0 -17.5,6.4 -7.2,6.5 -7.2,15.6 0,0.75 0.05,1.45 0.55,-7.2 7.15,-12.45 7.25,-5.75 17.5,-5.75 10.25,0 17.5,5.75 6.65,5.25 7.2,12.45 0.05,-0.7 0.05,-1.45 z"
         id="path119" />
    </g>
    <g
       id="headFocus_0_Layer0_1_FILL">
      <path
         fill="#bf7958"
         stroke="none"
         d="m -24.65,-16.95 q -2.35,2.35 -2.35,5.75 0,3.3 2.35,5.65 2.35,2.45 5.65,2.45 3.25,0 5.65,-2.45 2.35,-2.35 2.35,-5.65 0,-3.4 -2.35,-5.75 -2.4,-2.4 -5.65,-2.4 -3.3,0 -5.65,2.4 m 2.25,9.15 q -1.4,-1.4 -1.4,-3.4 0,-1.95 1.4,-3.5 1.4,-1.4 3.4,-1.4 2.05,0 3.4,1.4 1.4,1.55 1.4,3.5 0,2 -1.4,3.4 -1.35,1.45 -3.4,1.45 -2,0 -3.4,-1.45 m 34.75,2.25 q 2.35,2.45 5.65,2.45 3.25,0 5.65,-2.45 Q 26,-7.9 26,-11.2 q 0,-3.4 -2.35,-5.75 -2.4,-2.4 -5.65,-2.4 -3.3,0 -5.65,2.4 -2.35,2.35 -2.35,5.75 0,3.3 2.35,5.65 m 2.25,-9.15 q 1.4,-1.4 3.4,-1.4 2,0 3.4,1.4 1.4,1.55 1.4,3.5 0,2 -1.4,3.4 -1.4,1.45 -3.4,1.45 -2,0 -3.4,-1.45 -1.4,-1.4 -1.4,-3.4 0,-1.95 1.4,-3.5 z"
         id="path122" />
      <path
         fill="#a8603f"
         stroke="none"
         d="m -23.8,-11.2 q 0,2 1.4,3.4 1.4,1.45 3.4,1.45 2.05,0 3.4,-1.45 1.4,-1.4 1.4,-3.4 0,-1.95 -1.4,-3.5 -1.35,-1.4 -3.4,-1.4 -2,0 -3.4,1.4 -1.4,1.55 -1.4,3.5 M 18,-16.1 q -2,0 -3.4,1.4 -1.4,1.55 -1.4,3.5 0,2 1.4,3.4 1.4,1.45 3.4,1.45 2,0 3.4,-1.45 1.4,-1.4 1.4,-3.4 0,-1.95 -1.4,-3.5 -1.4,-1.4 -3.4,-1.4 z"
         id="path124" />
    </g>
    <g
       id="headFocus_0_Layer0_2_FILL">
      <path
         fill="#bf7958"
         stroke="none"
         d="m 18.1,-3.65 2.3,-22.55 h -41.85 l 2.3,22.55 q 2.05,7.4 10.4,10.3 4.2,1.45 8.2,1.35 4.05,0.1 8.2,-1.35 8.4,-2.9 10.45,-10.3 z"
         id="path127" />
    </g>
    <g
       id="headFocus_0_Layer0_3_FILL">
      <path
         fill="#3c3e41"
         stroke="none"
         d="m -13.1,-9.2 q 0,-0.2 0,-0.35 0,-1.75 1.15,-3 0.95,-1 2.3,-1.25 h -5.75 q 2.1,1.65 2.3,4.6 m 6.65,2.15 q 0.7,-1 0.7,-2.5 0,-1.45 -0.7,-2.5 -0.7,-1.05 -1.75,-1.05 -1,0 -1.65,1.05 -0.7,1.05 -0.7,2.5 0,1.5 0.7,2.5 0.65,1.05 1.65,1.05 1.05,0 1.75,-1.05 m 18.5,-2.5 q 0,0.15 0,0.35 0.2,-2.95 2.25,-4.6 H 8.6 q 1.35,0.25 2.3,1.25 1.15,1.25 1.15,3 m -7.35,0 q 0,1.5 0.7,2.5 0.65,1.05 1.7,1.05 1,0 1.7,-1.05 0.7,-1 0.7,-2.5 0,-1.45 -0.7,-2.5 -0.7,-1.05 -1.7,-1.05 -1.05,0 -1.7,1.05 -0.7,1.05 -0.7,2.5 z"
         id="path130" />
      <path
         fill="#ffffff"
         stroke="none"
         d="m -9.25,-13.85 q -0.2,0 -0.4,0.05 -1.35,0.25 -2.3,1.25 -1.15,1.25 -1.15,3 0,0.15 0,0.35 0.1,1.5 1.15,2.65 1.2,1.3 2.95,1.3 1.7,0 2.85,-1.3 1.2,-1.25 1.2,-3 0,-1.75 -1.2,-3 -1.15,-1.3 -2.85,-1.3 -0.15,0 -0.25,0 m 3.5,4.3 q 0,1.5 -0.7,2.5 -0.7,1.05 -1.75,1.05 -1,0 -1.65,-1.05 -0.7,-1 -0.7,-2.5 0,-1.45 0.7,-2.5 0.65,-1.05 1.65,-1.05 1.05,0 1.75,1.05 0.7,1.05 0.7,2.5 M 8.6,-13.8 q -0.2,-0.05 -0.4,-0.05 -0.15,0 -0.3,0 -1.7,0 -2.8,1.3 -1.2,1.25 -1.2,3 0,1.75 1.2,3 1.1,1.3 2.8,1.3 1.8,0 3,-1.3 1.05,-1.15 1.15,-2.65 0,-0.2 0,-0.35 0,-1.75 -1.15,-3 -0.95,-1 -2.3,-1.25 m -3.2,6.75 q -0.7,-1 -0.7,-2.5 0,-1.45 0.7,-2.5 0.65,-1.05 1.7,-1.05 1,0 1.7,1.05 0.7,1.05 0.7,2.5 0,1.5 -0.7,2.5 Q 8.1,-6 7.1,-6 6.05,-6 5.4,-7.05 Z"
         id="path132" />
    </g>
    <g
       id="headFocus_0_Layer0_4_FILL">
      <path
         fill="#955435"
         stroke="none"
         d="M 8.5,-1.2 Q 5.65,-3.6 2.85,-2.8 0.05,-2.1 -1.1,1.35 Z"
         id="path135" />
    </g>
    <g
       id="headFocus_0_Layer0_5_FILL">
      <path
         fill="#955435"
         stroke="none"
         d="m 1.85,-4.85 q 1.05,-0.7 1.05,-1.6 0,-0.9 -1.05,-1.65 -1,-0.65 -2.45,-0.65 -1.35,0 -2.35,0.65 -1,0.75 -1,1.65 0,0.9 1,1.6 1,0.75 2.35,0.75 1.45,0 2.45,-0.75 z"
         id="path138" />
    </g>
    <g
       id="headFocus_0_Layer0_6_FILL">
      <path
         fill="#3c3e41"
         stroke="none"
         d="m 20.05,-17.65 1,-8.4 H 20.5 v -0.85 h -42.7 l 0.65,7.65 q 10.75,-0.2 15.9,-4.1 5.2,6.45 11.05,6.6 l 1.45,-3.1 q 6.75,2.5 13.2,2.2 z"
         id="path141" />
    </g>
    <g
       id="headFocus_0_Layer0_7_FILL">
      <path
         fill="#71a2be"
         stroke="none"
         d="m 17.1,-26.95 q -0.8,-1.1 -2,-2.15 -5.55,-4.7 -15.6,-4.7 -10.05,0 -15.55,4.65 -0.4,0.25 -0.65,0.6 -0.85,0.7 -1.4,1.6 -0.6,0.8 -0.15,1.95 6.45,-3.7 17.75,-3.7 11.2,0 17.7,3.65 0.45,-1.1 -0.1,-1.9 z"
         id="path144" />
    </g>
    <g
       id="headFocus_0_Layer0_8_FILL">
      <path
         fill="#3c3e41"
         stroke="none"
         d="m -16.6,-12.55 q 0.6,-0.8 0.5,-1.85 l -0.65,-5.65 h -4.95 l 0.75,6.25 q 0.1,1 0.95,1.7 0.8,0.6 1.8,0.45 h 0.05 q 1,-0.1 1.55,-0.9 z"
         id="path147" />
    </g>
    <g
       id="headFocus_0_Layer0_9_FILL">
      <path
         fill="#3c3e41"
         stroke="none"
         d="m 14.85,-14.4 q -0.1,1.05 0.5,1.85 0.6,0.8 1.6,0.9 H 17 q 1,0.15 1.8,-0.45 0.85,-0.7 0.95,-1.7 l 0.75,-6.25 h -5 z"
         id="path150" />
    </g>
    <g
       id="headFocus_0_Layer0_10_MEMBER_0_FILL">
      <path
         fill="#3c3e41"
         stroke="none"
         d="m 13.4,-14.9 -0.6,-2.35 -9.3,1.35 0.55,1.95 z"
         id="path153" />
    </g>
    <g
       id="headFocus_0_Layer0_10_MEMBER_1_FILL">
      <path
         fill="#3c3e41"
         stroke="none"
         d="m -13.3,-17.25 -0.9,2.3 9.3,1.9 0.75,-1.95 z"
         id="path156" />
    </g>
    <g
       id="headFocus_0_Layer0_11_FILL">
      <path
         fill="#eea160"
         stroke="none"
         d="m 19.85,-7.8 q -0.4,0.7 -0.2,1.4 l 1,3.85 q 0.2,0.7 0.85,1.1 0.65,0.35 1.4,0.15 h 0.05 q 0.7,-0.2 1.1,-0.85 0.4,-0.7 0.2,-1.45 l -1,-3.8 q -0.2,-0.7 -0.9,-1.1 -0.7,-0.35 -1.35,-0.15 h -0.05 q -0.75,0.2 -1.1,0.85 z"
         id="path159" />
    </g>
    <g
       id="headFocus_0_Layer0_12_FILL">
      <path
         fill="#eea160"
         stroke="none"
         d="m -20.8,-7.8 q -0.35,-0.65 -1.1,-0.85 h -0.05 q -0.7,-0.2 -1.4,0.15 -0.7,0.4 -0.9,1.1 l -0.95,3.8 q -0.2,0.75 0.2,1.45 0.4,0.65 1.05,0.85 h 0.05 q 0.75,0.2 1.4,-0.15 0.7,-0.4 0.9,-1.1 l 1,-3.85 q 0.2,-0.7 -0.2,-1.4 z"
         id="path162" />
    </g>
    <g
       id="headShock_0_Layer0_0_FILL">
      <path
         fill="#3c3e41"
         stroke="none"
         d="m 23.75,-18.55 q -0.55,-7.2 -7.2,-12.45 -7.25,-5.75 -17.5,-5.75 -10.25,0 -17.5,5.75 -6.6,5.25 -7.15,12.45 0.55,8.15 7.15,14.05 7.25,6.5 17.5,6.5 10.25,0 17.5,-6.5 6.65,-5.9 7.2,-14.05 z"
         id="path165" />
      <path
         fill="#454a51"
         stroke="none"
         d="m 23.8,-20 q 0,-9.1 -7.25,-15.6 -7.25,-6.4 -17.5,-6.4 -10.25,0 -17.5,6.4 -7.2,6.5 -7.2,15.6 0,0.75 0.05,1.45 0.55,-7.2 7.15,-12.45 7.25,-5.75 17.5,-5.75 10.25,0 17.5,5.75 6.65,5.25 7.2,12.45 0.05,-0.7 0.05,-1.45 z"
         id="path167" />
    </g>
    <g
       id="headShock_0_Layer0_1_MEMBER_0_FILL">
      <path
         fill="#bf7958"
         stroke="none"
         d="m -27,-11.2 q 0,3.3 2.35,5.65 2.35,2.45 5.65,2.45 3.25,0 5.65,-2.45 2.35,-2.35 2.35,-5.65 0,-3.4 -2.35,-5.75 -2.4,-2.4 -5.65,-2.4 -3.3,0 -5.65,2.4 -2.35,2.35 -2.35,5.75 m 3.2,0 q 0,-1.95 1.4,-3.5 1.4,-1.4 3.4,-1.4 2.05,0 3.4,1.4 1.4,1.55 1.4,3.5 0,2 -1.4,3.4 -1.35,1.45 -3.4,1.45 -2,0 -3.4,-1.45 -1.4,-1.4 -1.4,-3.4 M 18,-19.35 q -3.3,0 -5.65,2.4 -2.35,2.35 -2.35,5.75 0,3.3 2.35,5.65 2.35,2.45 5.65,2.45 3.25,0 5.65,-2.45 Q 26,-7.9 26,-11.2 q 0,-3.4 -2.35,-5.75 -2.4,-2.4 -5.65,-2.4 m 0,13 q -2,0 -3.4,-1.45 -1.4,-1.4 -1.4,-3.4 0,-1.95 1.4,-3.5 1.4,-1.4 3.4,-1.4 2,0 3.4,1.4 1.4,1.55 1.4,3.5 0,2 -1.4,3.4 -1.4,1.45 -3.4,1.45 z"
         id="path170" />
      <path
         fill="#a8603f"
         stroke="none"
         d="m -22.4,-14.7 q -1.4,1.55 -1.4,3.5 0,2 1.4,3.4 1.4,1.45 3.4,1.45 2.05,0 3.4,-1.45 1.4,-1.4 1.4,-3.4 0,-1.95 -1.4,-3.5 -1.35,-1.4 -3.4,-1.4 -2,0 -3.4,1.4 m 37,6.9 q 1.4,1.45 3.4,1.45 2,0 3.4,-1.45 1.4,-1.4 1.4,-3.4 0,-1.95 -1.4,-3.5 -1.4,-1.4 -3.4,-1.4 -2,0 -3.4,1.4 -1.4,1.55 -1.4,3.5 0,2 1.4,3.4 z"
         id="path172" />
    </g>
    <g
       id="headShock_0_Layer0_1_MEMBER_1_FILL">
      <path
         fill="#bf7958"
         stroke="none"
         d="m 18.1,-3.65 2.3,-22.55 h -41.85 l 2.3,22.55 q 2.05,7.4 10.4,10.3 4.2,1.45 8.2,1.35 4.05,0.1 8.2,-1.35 8.4,-2.9 10.45,-10.3 z"
         id="path175" />
    </g>
    <g
       id="headShock_0_Layer0_1_MEMBER_2_FILL">
      <path
         fill="#955435"
         stroke="none"
         d="m 1.85,-4.85 q 1.05,-0.7 1.05,-1.6 0,-0.9 -1.05,-1.65 -1,-0.65 -2.45,-0.65 -1.35,0 -2.35,0.65 -1,0.75 -1,1.65 0,0.9 1,1.6 1,0.75 2.35,0.75 1.45,0 2.45,-0.75 z"
         id="path178" />
    </g>
    <g
       id="headShock_0_Layer0_1_MEMBER_2_MEMBER_0_FILL">
      <path
         fill="#3c3e41"
         stroke="none"
         d="m -13.1,-9.2 q 0,-0.2 0,-0.35 0,-1.75 1.15,-3 0.95,-1 2.3,-1.25 h -5.75 q 2.1,1.65 2.3,4.6 m 6.65,2.15 q 0.7,-1 0.7,-2.5 0,-1.45 -0.7,-2.5 -0.7,-1.05 -1.75,-1.05 -1,0 -1.65,1.05 -0.7,1.05 -0.7,2.5 0,1.5 0.7,2.5 0.65,1.05 1.65,1.05 1.05,0 1.75,-1.05 m 18.5,-2.5 q 0,0.15 0,0.35 0.2,-2.95 2.25,-4.6 H 8.6 q 1.35,0.25 2.3,1.25 1.15,1.25 1.15,3 m -7.35,0 q 0,1.5 0.7,2.5 0.65,1.05 1.7,1.05 1,0 1.7,-1.05 0.7,-1 0.7,-2.5 0,-1.45 -0.7,-2.5 -0.7,-1.05 -1.7,-1.05 -1.05,0 -1.7,1.05 -0.7,1.05 -0.7,2.5 z"
         id="path181" />
      <path
         fill="#ffffff"
         stroke="none"
         d="m -9.25,-13.85 q -0.2,0 -0.4,0.05 -1.35,0.25 -2.3,1.25 -1.15,1.25 -1.15,3 0,0.15 0,0.35 0.1,1.5 1.15,2.65 1.2,1.3 2.95,1.3 1.7,0 2.85,-1.3 1.2,-1.25 1.2,-3 0,-1.75 -1.2,-3 -1.15,-1.3 -2.85,-1.3 -0.15,0 -0.25,0 m 3.5,4.3 q 0,1.5 -0.7,2.5 -0.7,1.05 -1.75,1.05 -1,0 -1.65,-1.05 -0.7,-1 -0.7,-2.5 0,-1.45 0.7,-2.5 0.65,-1.05 1.65,-1.05 1.05,0 1.75,1.05 0.7,1.05 0.7,2.5 M 8.6,-13.8 q -0.2,-0.05 -0.4,-0.05 -0.15,0 -0.3,0 -1.7,0 -2.8,1.3 -1.2,1.25 -1.2,3 0,1.75 1.2,3 1.1,1.3 2.8,1.3 1.8,0 3,-1.3 1.05,-1.15 1.15,-2.65 0,-0.2 0,-0.35 0,-1.75 -1.15,-3 -0.95,-1 -2.3,-1.25 m -3.2,6.75 q -0.7,-1 -0.7,-2.5 0,-1.45 0.7,-2.5 0.65,-1.05 1.7,-1.05 1,0 1.7,1.05 0.7,1.05 0.7,2.5 0,1.5 -0.7,2.5 Q 8.1,-6 7.1,-6 6.05,-6 5.4,-7.05 Z"
         id="path183" />
    </g>
    <g
       id="headShock_0_Layer0_1_MEMBER_2_MEMBER_1_FILL">
      <path
         fill="#a8603f"
         stroke="none"
         d="M -0.5,-2 Q -2,-2 -3,-1 -4,0.05 -4,1.5 -4,3 -3,4 -2,5 -0.5,5 0.95,5 1.95,4 3,3 3,1.5 3,0.05 1.95,-1 0.95,-2 -0.5,-2 Z"
         id="path186" />
    </g>
    <g
       id="headShock_0_Layer0_2_FILL">
      <path
         fill="#3c3e41"
         stroke="none"
         d="m 20.05,-17.65 1,-8.4 H 20.5 v -0.85 h -42.7 l 0.65,7.65 q 10.75,-0.2 15.9,-4.1 5.2,6.45 11.05,6.6 l 1.45,-3.1 q 6.75,2.5 13.2,2.2 z"
         id="path189" />
    </g>
    <g
       id="headShock_0_Layer0_3_FILL">
      <path
         fill="#71a2be"
         stroke="none"
         d="m 17.1,-26.95 q -0.8,-1.1 -2,-2.15 -5.55,-4.7 -15.6,-4.7 -10.05,0 -15.55,4.65 -0.4,0.25 -0.65,0.6 -0.85,0.7 -1.4,1.6 -0.6,0.8 -0.15,1.95 6.45,-3.7 17.75,-3.7 11.2,0 17.7,3.65 0.45,-1.1 -0.1,-1.9 z"
         id="path192" />
    </g>
    <g
       id="headShock_0_Layer0_4_FILL">
      <path
         fill="#3c3e41"
         stroke="none"
         d="m -16.6,-12.55 q 0.6,-0.8 0.5,-1.85 l -0.65,-5.65 h -4.95 l 0.75,6.25 q 0.1,1 0.95,1.7 0.8,0.6 1.8,0.45 h 0.05 q 1,-0.1 1.55,-0.9 z"
         id="path195" />
    </g>
    <g
       id="headShock_0_Layer0_5_FILL">
      <path
         fill="#3c3e41"
         stroke="none"
         d="m 14.85,-14.4 q -0.1,1.05 0.5,1.85 0.6,0.8 1.6,0.9 H 17 q 1,0.15 1.8,-0.45 0.85,-0.7 0.95,-1.7 l 0.75,-6.25 h -5 z"
         id="path198" />
    </g>
    <g
       id="headShock_0_Layer0_6_FILL">
      <path
         fill="#3c3e41"
         stroke="none"
         d="m -15.3,-19.6 v 2.45 l 9.35,-1.5 v -2.05 l -9.35,1.1 m 28.9,4.2 v -2.45 l -9.3,-1.1 v 2.05 z"
         id="path201" />
    </g>
    <g
       id="headShock_0_Layer0_7_FILL">
      <path
         fill="#eea160"
         stroke="none"
         d="m 19.85,-7.8 q -0.4,0.7 -0.2,1.4 l 1,3.85 q 0.2,0.7 0.85,1.1 0.65,0.35 1.4,0.15 h 0.05 q 0.7,-0.2 1.1,-0.85 0.4,-0.7 0.2,-1.45 l -1,-3.8 q -0.2,-0.7 -0.9,-1.1 -0.7,-0.35 -1.35,-0.15 h -0.05 q -0.75,0.2 -1.1,0.85 z"
         id="path204" />
    </g>
    <g
       id="headShock_0_Layer0_8_FILL">
      <path
         fill="#eea160"
         stroke="none"
         d="m -20.8,-7.8 q -0.35,-0.65 -1.1,-0.85 h -0.05 q -0.7,-0.2 -1.4,0.15 -0.7,0.4 -0.9,1.1 l -0.95,3.8 q -0.2,0.75 0.2,1.45 0.4,0.65 1.05,0.85 h 0.05 q 0.75,0.2 1.4,-0.15 0.7,-0.4 0.9,-1.1 l 1,-3.85 q 0.2,-0.7 -0.2,-1.4 z"
         id="path207" />
    </g>
    <g
       id="headBack_0_Layer0_0_MEMBER_0_FILL">
      <path
         fill="#bf7958"
         stroke="none"
         d="m -24.65,-16.95 q -2.35,2.35 -2.35,5.75 0,3.3 2.35,5.65 2.35,2.45 5.65,2.45 3.25,0 5.65,-2.45 2.35,-2.35 2.35,-5.65 0,-3.4 -2.35,-5.75 -2.4,-2.4 -5.65,-2.4 -3.3,0 -5.65,2.4 m 2.25,9.15 q -1.4,-1.4 -1.4,-3.4 0,-1.95 1.4,-3.5 1.4,-1.4 3.4,-1.4 2.05,0 3.4,1.4 1.4,1.55 1.4,3.5 0,2 -1.4,3.4 -1.35,1.45 -3.4,1.45 -2,0 -3.4,-1.45 m 34.75,2.25 q 2.35,2.45 5.65,2.45 3.25,0 5.65,-2.45 Q 26,-7.9 26,-11.2 q 0,-3.4 -2.35,-5.75 -2.4,-2.4 -5.65,-2.4 -3.3,0 -5.65,2.4 -2.35,2.35 -2.35,5.75 0,3.3 2.35,5.65 m 2.25,-9.15 q 1.4,-1.4 3.4,-1.4 2,0 3.4,1.4 1.4,1.55 1.4,3.5 0,2 -1.4,3.4 -1.4,1.45 -3.4,1.45 -2,0 -3.4,-1.45 -1.4,-1.4 -1.4,-3.4 0,-1.95 1.4,-3.5 z"
         id="path210" />
      <path
         fill="#a8603f"
         stroke="none"
         d="m -23.8,-11.2 q 0,2 1.4,3.4 1.4,1.45 3.4,1.45 2.05,0 3.4,-1.45 1.4,-1.4 1.4,-3.4 0,-1.95 -1.4,-3.5 -1.35,-1.4 -3.4,-1.4 -2,0 -3.4,1.4 -1.4,1.55 -1.4,3.5 M 18,-16.1 q -2,0 -3.4,1.4 -1.4,1.55 -1.4,3.5 0,2 1.4,3.4 1.4,1.45 3.4,1.45 2,0 3.4,-1.45 1.4,-1.4 1.4,-3.4 0,-1.95 -1.4,-3.5 -1.4,-1.4 -3.4,-1.4 z"
         id="path212" />
    </g>
    <g
       id="headBack_0_Layer0_0_MEMBER_1_FILL">
      <path
         fill="#bf7958"
         stroke="none"
         d="m 18.1,-3.65 2.3,-22.55 h -41.85 l 2.3,22.55 q 2.05,7.4 10.4,10.3 4.2,1.45 8.2,1.35 4.05,0.1 8.2,-1.35 8.4,-2.9 10.45,-10.3 z"
         id="path215" />
    </g>
    <g
       id="headBack_0_Layer0_1_FILL">
      <path
         fill="#eea160"
         stroke="none"
         d="m 19.85,-7.8 q -0.4,0.7 -0.2,1.4 l 1,3.85 q 0.2,0.7 0.85,1.1 0.65,0.35 1.4,0.15 h 0.05 q 0.7,-0.2 1.1,-0.85 0.4,-0.7 0.2,-1.45 l -1,-3.8 q -0.2,-0.7 -0.9,-1.1 -0.7,-0.35 -1.35,-0.15 h -0.05 q -0.75,0.2 -1.1,0.85 z"
         id="path218" />
    </g>
    <g
       id="headBack_0_Layer0_2_FILL">
      <path
         fill="#eea160"
         stroke="none"
         d="m -20.8,-7.8 q -0.35,-0.65 -1.1,-0.85 h -0.05 q -0.7,-0.2 -1.4,0.15 -0.7,0.4 -0.9,1.1 l -0.95,3.8 q -0.2,0.75 0.2,1.45 0.4,0.65 1.05,0.85 h 0.05 q 0.75,0.2 1.4,-0.15 0.7,-0.4 0.9,-1.1 l 1,-3.85 q 0.2,-0.7 -0.2,-1.4 z"
         id="path221" />
    </g>
    <g
       id="headBack_0_Layer0_3_FILL">
      <path
         fill="#454a51"
         stroke="none"
         d="m -25,-14.85 1.35,5.85 q 1.642578,5.7982422 0.3,10.8 -1.363867,4.1003906 -4.7,7.5 -0.45,0.35 -0.45,1 -0.05,0.7 0.35,1.15 v 0.05 q 0.05,-0.05 0.1,-0.1 7.75,-6.75 10.4,-14.85 0.0418,-0.1394531 0.1,-0.3 -0.4375,-0.3365234 -0.9,-0.75 v 0 Q -23.485742,-9.0017578 -25,-14.85 m 48.75,-3.7 q 0.05,-0.7 0.05,-1.45 0,-9.1 -7.25,-15.6 -7.25,-6.4 -17.5,-6.4 -10.25,0 -17.5,6.4 -7.2,6.5 -7.2,15.6 0,0.75 0.05,1.45 0.55,-7.2 7.15,-12.45 7.25,-5.75 17.5,-5.75 10.25,0 17.5,5.75 6.65,5.25 7.2,12.45 m -7.2,14.05 q -0.03379,0.030273 -0.1,0.05 -0.201953,0.2027344 -0.45,0.4 0.207031,0.2898437 0.3,0.6 2.65,8.1 10.4,14.85 0.05,0.05 0.1,0.1 V 11.45 Q 27.2,11 27.15,10.3 27.15,9.65 26.7,9.3 24.130859,6.6820312 22.7,3.65 20.814844,-1.2734375 21.8,-7.9 l 0.7,-4.9 q -1.780664,4.6009766 -5.95,8.3 z"
         id="path224" />
      <path
         fill="#3c3e41"
         stroke="none"
         d="m 16.45,-4.45 q 0.06621,-0.019727 0.1,-0.05 4.169336,-3.6990234 5.95,-8.3 1.044922,-2.709766 1.25,-5.75 -0.55,-7.2 -7.2,-12.45 -7.25,-5.75 -17.5,-5.75 -10.25,0 -17.5,5.75 -6.6,5.25 -7.15,12.45 0.130273,1.931641 0.6,3.7 1.514258,5.8482422 6.55,10.35 v 0 q 0.4625,0.4134766 0.9,0.75 -0.0582,0.1605469 -0.1,0.3 -2.65,8.1 -10.4,14.85 -0.05,0.05 -0.1,0.1 0.45,0.45 1.05,0.55 14.742383,1.563672 26.15,-10.05 11.895117,11.620117 26.7,10.05 0.6,-0.1 1.05,-0.55 -0.05,-0.05 -0.1,-0.1 -7.75,-6.75 -10.4,-14.85 -0.09297,-0.3101563 -0.3,-0.6 0.248047,-0.1972656 0.45,-0.4 z"
         id="path226" />
    </g>
    <g
       id="head_0_Layer0_0_FILL">
      <path
         fill="#3c3e41"
         stroke="none"
         d="m 23.75,-18.55 q -0.55,-7.2 -7.2,-12.45 -7.25,-5.75 -17.5,-5.75 -10.25,0 -17.5,5.75 -6.6,5.25 -7.15,12.45 0.55,8.15 7.15,14.05 7.25,6.5 17.5,6.5 10.25,0 17.5,-6.5 6.65,-5.9 7.2,-14.05 z"
         id="path229" />
      <path
         fill="#454a51"
         stroke="none"
         d="m 23.8,-20 q 0,-9.1 -7.25,-15.6 -7.25,-6.4 -17.5,-6.4 -10.25,0 -17.5,6.4 -7.2,6.5 -7.2,15.6 0,0.75 0.05,1.45 0.55,-7.2 7.15,-12.45 7.25,-5.75 17.5,-5.75 10.25,0 17.5,5.75 6.65,5.25 7.2,12.45 0.05,-0.7 0.05,-1.45 z"
         id="path231" />
    </g>
    <g
       id="head_0_Layer0_1_MEMBER_0_FILL">
      <path
         fill="#bf7958"
         stroke="none"
         d="m -24.65,-16.95 q -2.35,2.35 -2.35,5.75 0,3.3 2.35,5.65 2.35,2.45 5.65,2.45 3.25,0 5.65,-2.45 2.35,-2.35 2.35,-5.65 0,-3.4 -2.35,-5.75 -2.4,-2.4 -5.65,-2.4 -3.3,0 -5.65,2.4 m 2.25,9.15 q -1.4,-1.4 -1.4,-3.4 0,-1.95 1.4,-3.5 1.4,-1.4 3.4,-1.4 2.05,0 3.4,1.4 1.4,1.55 1.4,3.5 0,2 -1.4,3.4 -1.35,1.45 -3.4,1.45 -2,0 -3.4,-1.45 m 34.75,2.25 q 2.35,2.45 5.65,2.45 3.25,0 5.65,-2.45 Q 26,-7.9 26,-11.2 q 0,-3.4 -2.35,-5.75 -2.4,-2.4 -5.65,-2.4 -3.3,0 -5.65,2.4 -2.35,2.35 -2.35,5.75 0,3.3 2.35,5.65 m 2.25,-9.15 q 1.4,-1.4 3.4,-1.4 2,0 3.4,1.4 1.4,1.55 1.4,3.5 0,2 -1.4,3.4 -1.4,1.45 -3.4,1.45 -2,0 -3.4,-1.45 -1.4,-1.4 -1.4,-3.4 0,-1.95 1.4,-3.5 z"
         id="path234" />
      <path
         fill="#a8603f"
         stroke="none"
         d="m -23.8,-11.2 q 0,2 1.4,3.4 1.4,1.45 3.4,1.45 2.05,0 3.4,-1.45 1.4,-1.4 1.4,-3.4 0,-1.95 -1.4,-3.5 -1.35,-1.4 -3.4,-1.4 -2,0 -3.4,1.4 -1.4,1.55 -1.4,3.5 M 18,-16.1 q -2,0 -3.4,1.4 -1.4,1.55 -1.4,3.5 0,2 1.4,3.4 1.4,1.45 3.4,1.45 2,0 3.4,-1.45 1.4,-1.4 1.4,-3.4 0,-1.95 -1.4,-3.5 -1.4,-1.4 -3.4,-1.4 z"
         id="path236" />
    </g>
    <g
       id="head_0_Layer0_1_MEMBER_1_FILL">
      <path
         fill="#bf7958"
         stroke="none"
         d="m 18.1,-3.65 2.3,-22.55 h -41.85 l 2.3,22.55 q 2.05,7.4 10.4,10.3 4.2,1.45 8.2,1.35 4.05,0.1 8.2,-1.35 8.4,-2.9 10.45,-10.3 z"
         id="path239" />
    </g>
    <g
       id="head_0_Layer0_1_MEMBER_2_FILL">
      <path
         fill="#955435"
         stroke="none"
         d="m 1.85,-4.85 q 1.05,-0.7 1.05,-1.6 0,-0.9 -1.05,-1.65 -1,-0.65 -2.45,-0.65 -1.35,0 -2.35,0.65 -1,0.75 -1,1.65 0,0.9 1,1.6 1,0.8 2.35,0.8 1.45,0 2.45,-0.8 z"
         id="path242" />
    </g>
    <g
       id="head_0_Layer0_1_MEMBER_2_MEMBER_0_FILL">
      <path
         fill="#3c3e41"
         stroke="none"
         d="m -13.1,-9.2 q 0,-0.2 0,-0.35 0,-1.75 1.15,-3 0.95,-1 2.3,-1.25 h -5.75 q 2.1,1.65 2.3,4.6 m 6.65,2.15 q 0.7,-1 0.7,-2.5 0,-1.45 -0.7,-2.5 -0.7,-1.05 -1.75,-1.05 -1,0 -1.65,1.05 -0.7,1.05 -0.7,2.5 0,1.5 0.7,2.5 0.65,1.05 1.65,1.05 1.05,0 1.75,-1.05 m 18.5,-2.5 q 0,0.15 0,0.35 0.2,-2.95 2.25,-4.6 H 8.6 q 1.35,0.25 2.3,1.25 1.15,1.25 1.15,3 m -7.35,0 q 0,1.5 0.7,2.5 0.65,1.05 1.7,1.05 1,0 1.7,-1.05 0.7,-1 0.7,-2.5 0,-1.45 -0.7,-2.5 -0.7,-1.05 -1.7,-1.05 -1.05,0 -1.7,1.05 -0.7,1.05 -0.7,2.5 z"
         id="path245" />
      <path
         fill="#ffffff"
         stroke="none"
         d="m -9.25,-13.85 q -0.2,0 -0.4,0.05 -1.35,0.25 -2.3,1.25 -1.15,1.25 -1.15,3 0,0.15 0,0.35 0.1,1.5 1.15,2.65 1.2,1.3 2.95,1.3 1.7,0 2.85,-1.3 1.2,-1.25 1.2,-3 0,-1.75 -1.2,-3 -1.15,-1.3 -2.85,-1.3 -0.15,0 -0.25,0 m 3.5,4.3 q 0,1.5 -0.7,2.5 -0.7,1.05 -1.75,1.05 -1,0 -1.65,-1.05 -0.7,-1 -0.7,-2.5 0,-1.45 0.7,-2.5 0.65,-1.05 1.65,-1.05 1.05,0 1.75,1.05 0.7,1.05 0.7,2.5 M 8.6,-13.8 q -0.2,-0.05 -0.4,-0.05 -0.15,0 -0.3,0 -1.7,0 -2.8,1.3 -1.2,1.25 -1.2,3 0,1.75 1.2,3 1.1,1.3 2.8,1.3 1.8,0 3,-1.3 1.05,-1.15 1.15,-2.65 0,-0.2 0,-0.35 0,-1.75 -1.15,-3 -0.95,-1 -2.3,-1.25 m -3.2,6.75 q -0.7,-1 -0.7,-2.5 0,-1.45 0.7,-2.5 0.65,-1.05 1.7,-1.05 1,0 1.7,1.05 0.7,1.05 0.7,2.5 0,1.5 -0.7,2.5 Q 8.1,-6 7.1,-6 6.05,-6 5.4,-7.05 Z"
         id="path247" />
    </g>
    <g
       id="head_0_Layer0_1_MEMBER_2_MEMBER_1_FILL">
      <path
         fill="#ffffff"
         stroke="none"
         d="M 1.75,1.2 V -2 H -5.9 q -0.35,0 -0.65,0.25 -0.35,0.15 -0.4,0.5 -0.1,0.25 0,0.65 0.05,0.5 0.35,1.05 0.25,0.35 0.55,0.75 z"
         id="path250" />
      <path
         fill="#a8603f"
         stroke="none"
         d="M 4.9,-2 H 1.75 v 3.2 h -7.8 q 0.3,0.55 0.8,0.9 Q -3.3,4 -0.5,4 2.2,4 4.2,2.15 L 4.3,2.1 Q 5.05,1.4 5.55,0.45 5.85,-0.1 6,-0.6 6.05,-1 5.95,-1.25 5.85,-1.6 5.55,-1.75 5.25,-2 4.9,-2 Z"
         id="path252" />
    </g>
    <g
       id="head_0_Layer0_2_FILL">
      <path
         fill="#3c3e41"
         stroke="none"
         d="m 20.05,-17.65 1,-8.4 H 20.5 v -0.85 h -42.7 l 0.65,7.65 q 10.75,-0.2 15.9,-4.1 5.2,6.45 11.05,6.6 l 1.45,-3.1 q 6.75,2.5 13.2,2.2 z"
         id="path255" />
    </g>
    <g
       id="head_0_Layer0_3_FILL">
      <path
         fill="#71a2be"
         stroke="none"
         d="m 17.1,-26.95 q -0.8,-1.1 -2,-2.15 -5.55,-4.7 -15.6,-4.7 -10.05,0 -15.55,4.65 -0.4,0.25 -0.65,0.6 -0.85,0.7 -1.4,1.6 -0.6,0.8 -0.15,1.95 6.45,-3.7 17.75,-3.7 11.2,0 17.7,3.65 0.45,-1.1 -0.1,-1.9 z"
         id="path258" />
    </g>
    <g
       id="head_0_Layer0_4_FILL">
      <path
         fill="#3c3e41"
         stroke="none"
         d="m -16.6,-12.55 q 0.6,-0.8 0.5,-1.85 l -0.65,-5.65 h -4.95 l 0.75,6.25 q 0.1,1 0.95,1.7 0.8,0.6 1.8,0.45 h 0.05 q 1,-0.1 1.55,-0.9 z"
         id="path261" />
    </g>
    <g
       id="head_0_Layer0_5_FILL">
      <path
         fill="#3c3e41"
         stroke="none"
         d="m 14.85,-14.4 q -0.1,1.05 0.5,1.85 0.6,0.8 1.6,0.9 H 17 q 1,0.15 1.8,-0.45 0.85,-0.7 0.95,-1.7 l 0.75,-6.25 h -5 z"
         id="path264" />
    </g>
    <g
       id="head_0_Layer0_6_MEMBER_0_FILL">
      <path
         fill="#3c3e41"
         stroke="none"
         d="M -14.35,-18.35 -15,-15.95 -5.55,-15 -5,-17 Z"
         id="path267" />
    </g>
    <g
       id="head_0_Layer0_6_MEMBER_1_FILL">
      <path
         fill="#3c3e41"
         stroke="none"
         d="m 14,-15.8 -0.4,-2.4 -9.35,0.45 0.35,2.05 z"
         id="path270" />
    </g>
    <g
       id="head_0_Layer0_7_FILL">
      <path
         fill="#eea160"
         stroke="none"
         d="m 19.85,-7.8 q -0.4,0.7 -0.2,1.4 l 1,3.85 q 0.2,0.7 0.85,1.1 0.65,0.35 1.4,0.15 h 0.05 q 0.7,-0.2 1.1,-0.85 0.4,-0.7 0.2,-1.45 l -1,-3.8 q -0.2,-0.7 -0.9,-1.1 -0.7,-0.35 -1.35,-0.15 h -0.05 q -0.75,0.2 -1.1,0.85 z"
         id="path273" />
    </g>
    <g
       id="head_0_Layer0_8_FILL">
      <path
         fill="#eea160"
         stroke="none"
         d="m -20.8,-7.8 q -0.35,-0.65 -1.1,-0.85 h -0.05 q -0.7,-0.2 -1.4,0.15 -0.7,0.4 -0.9,1.1 l -0.95,3.8 q -0.2,0.75 0.2,1.45 0.4,0.65 1.05,0.85 h 0.05 q 0.75,0.2 1.4,-0.15 0.7,-0.4 0.9,-1.1 l 1,-3.85 q 0.2,-0.7 -0.2,-1.4 z"
         id="path276" />
    </g>
    <radialGradient
       id="Gradient_1-3"
       gradientUnits="userSpaceOnUse"
       cx="0"
       cy="0"
       r="13.5875"
       fx="0"
       fy="0"
       spreadMethod="pad">
      <stop
         offset="0%"
         stop-color="#000000"
         stop-opacity="0.30196078431372547"
         id="stop2-6" />
      <stop
         offset="100%"
         stop-color="#000000"
         stop-opacity="0"
         id="stop4-7" />
    </radialGradient>
    <radialGradient
       id="radialGradient5903"
       gradientUnits="userSpaceOnUse"
       cx="0"
       cy="0"
       r="13.5875"
       fx="0"
       fy="0"
       spreadMethod="pad">
      <stop
         offset="0%"
         stop-color="#000000"
         stop-opacity="0.30196078431372547"
         id="stop5899" />
      <stop
         offset="100%"
         stop-color="#000000"
         stop-opacity="0"
         id="stop5901" />
    </radialGradient>
  </defs>
  <g
     filter="url(#Filter_1)"
     id="g5452"
     transform="translate(-318.78163,-279.96819)">
    <g
       id="poses">
      <g
         transform="matrix(0.99263,0.12124634,-0.12124634,0.99263,337.25,330.5)"
         id="g2952">
        <g
           id="back_FL_FL_FL_FL_FL_FL_FL_FL_FL_FL_FL_FL_FL_FL_FL_FL_FL_FL_FL_FL_FL"
           transform="matrix(1.4489547,-0.17698484,0.17698484,1.4489547,32.519124,46.498878)">
          <g
             id="g472">
            <use
               xlink:href="#Symbol_1_0_Layer0_0_MEMBER_0_FILL"
               id="use470" />
          </g>
          <g
             id="g476">
            <use
               xlink:href="#Symbol_1_0_Layer0_0_MEMBER_1_FILL"
               id="use474" />
          </g>
        </g>
        <g
           transform="matrix(2.184133,-0.26678434,0.17698484,1.4489547,26.109226,24.120303)"
           id="g2882">
          <g
             id="g2880">
            <use
               xlink:href="#shadow_0_Layer0_0_FILL"
               id="use2878" />
          </g>
        </g>
        <g
           id="g2898"
           transform="matrix(1.4597347,0,0,1.4597347,25.995759,12.957813)">
          <use
             xlink:href="#headFocus_0_Layer0_0_FILL"
             id="use2896" />
        </g>
        <g
           id="g2902"
           transform="matrix(1.4597347,0,0,1.4597347,25.995759,12.957813)">
          <use
             xlink:href="#headFocus_0_Layer0_1_FILL"
             id="use2900" />
        </g>
        <g
           id="g2906"
           transform="matrix(1.4597347,0,0,1.4597347,25.995759,12.957813)">
          <use
             xlink:href="#headFocus_0_Layer0_2_FILL"
             id="use2904" />
        </g>
        <g
           id="g2910"
           transform="matrix(1.4597347,0,0,1.4597347,25.995759,12.957813)">
          <use
             xlink:href="#headFocus_0_Layer0_3_FILL"
             id="use2908" />
        </g>
        <g
           id="g2914"
           transform="matrix(1.4597347,0,0,1.4597347,25.995759,12.957813)">
          <use
             xlink:href="#headFocus_0_Layer0_4_FILL"
             id="use2912" />
        </g>
        <g
           id="g2918"
           transform="matrix(1.4597347,0,0,1.4597347,25.995759,12.957813)">
          <use
             xlink:href="#headFocus_0_Layer0_5_FILL"
             id="use2916" />
        </g>
        <g
           id="g2922"
           transform="matrix(1.4597347,0,0,1.4597347,25.995759,12.957813)">
          <use
             xlink:href="#headFocus_0_Layer0_6_FILL"
             id="use2920" />
        </g>
        <g
           id="g2926"
           transform="matrix(1.4597347,0,0,1.4597347,25.995759,12.957813)">
          <use
             xlink:href="#headFocus_0_Layer0_7_FILL"
             id="use2924" />
        </g>
        <g
           id="g2930"
           transform="matrix(1.4597347,0,0,1.4597347,25.995759,12.957813)">
          <use
             xlink:href="#headFocus_0_Layer0_8_FILL"
             id="use2928" />
        </g>
        <g
           id="g2934"
           transform="matrix(1.4597347,0,0,1.4597347,25.995759,12.957813)">
          <use
             xlink:href="#headFocus_0_Layer0_9_FILL"
             id="use2932" />
        </g>
        <g
           id="g2938"
           transform="matrix(1.4597347,0,0,1.4597347,25.995759,12.957813)">
          <use
             xlink:href="#headFocus_0_Layer0_10_MEMBER_0_FILL"
             id="use2936" />
        </g>
        <g
           id="g2942"
           transform="matrix(1.4597347,0,0,1.4597347,25.995759,12.957813)">
          <use
             xlink:href="#headFocus_0_Layer0_10_MEMBER_1_FILL"
             id="use2940" />
        </g>
        <g
           id="g2946"
           transform="matrix(1.4597347,0,0,1.4597347,25.995759,12.957813)">
          <use
             xlink:href="#headFocus_0_Layer0_11_FILL"
             id="use2944" />
        </g>
        <g
           id="g2950"
           transform="matrix(1.4597347,0,0,1.4597347,25.995759,12.957813)">
          <use
             xlink:href="#headFocus_0_Layer0_12_FILL"
             id="use2948" />
        </g>
      </g>
    </g>
  </g>
</svg>
