<?xml version="1.0" encoding="UTF-8" standalone="no"?>
<svg
   version="1.1"
   preserveAspectRatio="none"
   x="0px"
   y="0px"
   width="66.846779"
   height="102.9164"
   viewBox="0 0 66.846779 102.9164"
   id="svg11340"
   sodipodi:docname="char-male.svg"
   inkscape:version="1.2.2 (b0a8486541, 2022-12-01)"
   xmlns:inkscape="http://www.inkscape.org/namespaces/inkscape"
   xmlns:sodipodi="http://sodipodi.sourceforge.net/DTD/sodipodi-0.dtd"
   xmlns:xlink="http://www.w3.org/1999/xlink"
   xmlns="http://www.w3.org/2000/svg"
   xmlns:svg="http://www.w3.org/2000/svg">
  <sodipodi:namedview
     id="namedview11342"
     pagecolor="#ffffff"
     bordercolor="#000000"
     borderopacity="0.25"
     inkscape:showpageshadow="2"
     inkscape:pageopacity="0.0"
     inkscape:pagecheckerboard="0"
     inkscape:deskcolor="#d1d1d1"
     showgrid="false"
     inkscape:zoom="1.2265625"
     inkscape:cx="131.26115"
     inkscape:cy="-65.630573"
     inkscape:window-width="1920"
     inkscape:window-height="961"
     inkscape:window-x="0"
     inkscape:window-y="0"
     inkscape:window-maximized="1"
     inkscape:current-layer="poses" />
  <defs
     id="defs6783">
    <radialGradient
       id="Gradient_1"
       gradientUnits="userSpaceOnUse"
       cx="0"
       cy="0"
       r="13.5875"
       fx="0"
       fy="0"
       spreadMethod="pad">
      <stop
         offset="0%"
         stop-color="#000000"
         stop-opacity="0.30196078431372547"
         id="stop6565" />
      <stop
         offset="100%"
         stop-color="#000000"
         stop-opacity="0"
         id="stop6567" />
    </radialGradient>
    <filter
       id="Filter_1"
       x="-0.17192824"
       y="-0.28052619"
       width="1.3438565"
       height="1.396037"
       color-interpolation-filters="sRGB">
      <feFlood
         flood-color="#000000"
         flood-opacity="1"
         in="SourceGraphic"
         result="result1"
         id="feFlood6570" />
      <feComposite
         in2="SourceGraphic"
         in="result1"
         operator="in"
         result="result2"
         id="feComposite6572" />
      <feColorMatrix
         in="SourceGraphic"
         type="matrix"
         values="0 0 0 0 255 0 0 0 0 255 0 0 0 0 255 0 0 0 255 0"
         result="result3"
         id="feColorMatrix6574" />
      <feOffset
         dx="-1.4695761589768238e-15"
         dy="-8"
         in="SourceGraphic"
         result="result4"
         id="feOffset6576" />
      <feGaussianBlur
         in="result4"
         stdDeviation="3.3333333333333335,3.3333333333333335"
         result="result5"
         id="feGaussianBlur6578" />
      <feComposite
         in2="result5"
         in="result2"
         operator="out"
         result="result6"
         id="feComposite6580" />
      <feOffset
         dx="-1.4695761589768238e-15"
         dy="-8"
         in="result3"
         result="result7"
         id="feOffset6582" />
      <feComposite
         in2="result3"
         in="result7"
         operator="in"
         result="result8"
         id="feComposite6584" />
      <feComposite
         in2="result8"
         in="SourceGraphic"
         operator="in"
         result="result9"
         id="feComposite6586" />
      <feBlend
         mode="normal"
         in2="result9"
         in="result6"
         result="result10"
         id="feBlend6588" />
      <feComposite
         in2="result3"
         in="result10"
         operator="in"
         result="result11"
         id="feComposite6590" />
      <feFlood
         flood-color="#FFFFFF"
         flood-opacity="1"
         in="result11"
         result="result12"
         id="feFlood6592" />
      <feFlood
         flood-color="#000000"
         flood-opacity="1"
         in="result11"
         result="result13"
         id="feFlood6594" />
      <feComposite
         in2="result11"
         in="result13"
         operator="in"
         result="result14"
         id="feComposite6596" />
      <feColorMatrix
         in="result14"
         type="matrix"
         values="0 0 0 0 255 0 0 0 0 255 0 0 0 0 255 0 0 0 255 0"
         result="result15"
         id="feColorMatrix6598" />
      <feComposite
         in2="result11"
         in="result12"
         operator="in"
         result="result16"
         id="feComposite6600" />
      <feGaussianBlur
         in="result14"
         stdDeviation="1.3333333333333333,1.3333333333333333"
         result="result17"
         id="feGaussianBlur6602" />
      <feComposite
         in2="result17"
         in="result16"
         operator="out"
         result="result18"
         id="feComposite6604" />
      <feBlend
         mode="normal"
         in2="result11"
         in="result18"
         result="result19"
         id="feBlend6606" />
      <feComposite
         in2="result15"
         in="result19"
         operator="in"
         result="result20"
         id="feComposite6608" />
    </filter>
    <g
       id="arm_0_Layer0_0_FILL">
      <path
         fill="#3dbf7b"
         stroke="none"
         d="M 9.95,3.9 Q 7.5,0.05 4,-3.35 2.25,-4.95 -0.2,-5 -2.65,-4.95 -4.4,-3.2 -6.1,-1.4 -6,1 q 0,2.45 1.7,4.15 2.4,2.3 4,4.95 Q 4.35,5.25 9.95,3.9 Z"
         id="path6611" />
      <path
         fill="#ffffff"
         stroke="none"
         d="M 13.85,12.85 Q 13.55,11.7 13.15,10.6 11.9,7.15 9.95,3.9 4.35,5.25 -0.3,10.1 q 0.85,1.35 1.5,2.75 z"
         id="path6613" />
      <path
         fill="#ffd7b1"
         stroke="none"
         d="m 1.2,12.85 q 1.55,3.2 1.95,6.9 0.25,2.4 2.15,3.95 1.95,1.5 4.4,1.3 2.4,-0.3 3.95,-2.25 1.55,-1.85 1.3,-4.35 -0.35,-2.9 -1.1,-5.55 z"
         id="path6615" />
    </g>
    <g
       id="arm_0_Layer0_0_MEMBER_0_FILL">
      <path
         fill="#25a863"
         stroke="none"
         d="m 12.4,4.8 -2.05,-3.6 -12.9,7.5 2,3.55 z"
         id="path6618" />
    </g>
    <g
       id="leg_0_Layer0_0_FILL">
      <path
         fill="#d78b49"
         stroke="none"
         d="M 5.25,14 H 5.3 L 5.45,9 h -11.9 l -0.15,5 z"
         id="path6621" />
      <path
         fill="#bf7958"
         stroke="none"
         d="M 11,20 5.25,14 H -6.6 L -7,23 h 17.9 z"
         id="path6623" />
      <path
         fill="#eea160"
         stroke="none"
         d="M 5.9,-0.2 Q 5.9,-2.6 4,-4.3 2.15,-6 -0.55,-6 -3.2,-6 -5.1,-4.3 -7,-2.6 -7,-0.2 L -6.45,9 h 11.9 z"
         id="path6625" />
    </g>
    <g
       id="legBend_0_Layer0_0_FILL">
      <path
         fill="#d78b49"
         stroke="none"
         d="M 11.5,13.25 Q 11.65,9.7 11.05,6.7 L -1.15,8 q 0.8,1.6 0.85,3.6 z"
         id="path6628" />
      <path
         fill="#bf7958"
         stroke="none"
         d="M 16,20.05 11.5,13.25 -0.3,11.6 -2.05,20.35 15.45,23 Z"
         id="path6630" />
      <path
         fill="#eea160"
         stroke="none"
         d="m -2.55,-5.8 q -2.35,0.6 -3.6,2.7 -1.25,2.15 -0.65,4.55 0.6,2.35 2.75,3.65 1.95,1.15 2.9,2.9 L 11.05,6.7 Q 9.3,-0.85 2,-5.15 -0.15,-6.45 -2.55,-5.8 Z"
         id="path6632" />
    </g>
    <g
       id="bodyBack_0_Layer0_0_FILL">
      <path
         fill="#bf7958"
         stroke="none"
         d="M 14.55,2.8 V -2.15 H -15.5 V 2.8 Z"
         id="path6635" />
      <path
         fill="#eea160"
         stroke="none"
         d="m -15.5,2.8 q 0.1,3.3 1.5,5.2 h 27.05 q 1.4,-1.9 1.5,-5.2 z"
         id="path6637" />
      <path
         fill="#3dbf7b"
         stroke="none"
         d="m 14.55,-2.15 3.2,-13.65 q 1.05,-5.4 -2.6,-5.2 h -31.3 q -3.65,-0.2 -2.6,5.2 l 3.25,13.65 z"
         id="path6639" />
    </g>
    <g
       id="hand_0_Layer0_0_FILL">
      <path
         fill="#f0c49a"
         stroke="none"
         d="M -9.2,7.6 -9.25,6.65 q 0.5,-6.2 3.8,-9.6 -8.7,6.45 -3.8,10.6 z"
         id="path6642" />
      <path
         fill="#ffd7b1"
         stroke="none"
         d="M 7,-1.65 Q 6.95,-3 5.5,-3 l -10.95,0.05 q -3.3,3.4 -3.8,9.6 L -9.2,7.6 -9.25,7.65 q -0.05,1.65 0,3.5 v 0.4 q 0,1.4 2.15,1.8 3.15,0.7 6.15,0.65 Q 7.55,13.95 7,-0.75 Z"
         id="path6644" />
    </g>
    <g
       id="body_0_Layer0_0_FILL">
      <path
         fill="#bf7958"
         stroke="none"
         d="M 14.55,-2.15 H -15.5 V 2.8 h 30.05 z"
         id="path6647" />
      <path
         fill="#eea160"
         stroke="none"
         d="m -15.5,2.8 q 0.1,3.3 1.5,5.2 h 27.05 q 1.4,-1.9 1.5,-5.2 z"
         id="path6649" />
      <path
         fill="#3dbf7b"
         stroke="none"
         d="m 14.55,-2.15 3.2,-13.65 q 1.05,-5.4 -2.6,-5.2 h -31.3 q -3.65,-0.2 -2.6,5.2 l 3.25,13.65 z"
         id="path6651" />
    </g>
    <g
       id="body_0_Layer0_1_FILL">
      <path
         fill="#bf7958"
         stroke="none"
         d="m -17.55,-5.05 4.9,1.35 3.9,-14.55 H -14 l -3.55,13.2 m 30.2,1.35 4.9,-1.35 L 14,-18.25 H 8.75 Z"
         id="path6654" />
    </g>
    <g
       id="body_0_Layer0_2_FILL">
      <path
         fill="#f0c49a"
         stroke="none"
         d="M 10,-22 Q 10,-25.75 6.95,-28.45 3.85,-31 -0.5,-31 q -4.35,0 -7.45,2.55 -3.05,2.7 -3.05,6.45 0,0.25 0.05,0.5 0.15,3.4 3,5.8 3.1,2.7 7.45,2.7 4.35,0 7.45,-2.7 2.85,-2.4 3,-5.8 Q 10,-21.75 10,-22 Z"
         id="path6657" />
    </g>
    <g
       id="body_0_Layer0_3_FILL">
      <path
         fill="#25a863"
         stroke="none"
         d="m -13.1,-22 -2.05,3.6 13.1,7.6 L 0,-14.45 -13.1,-22 m 26.2,0 -13.1,7.55 2.05,3.65 13.1,-7.6 z"
         id="path6660" />
      <path
         fill="#3dbf7b"
         stroke="none"
         d="M 2.05,-10.8 0,-14.45 -2.05,-10.8 Z"
         id="path6662" />
    </g>
    <g
       id="shadow_0_Layer0_0_FILL">
      <path
         fill="url(#Gradient_1)"
         stroke="none"
         d="m 9.45,-9.55 q -3.9,-3.9 -9.45,-3.9 -5.55,0 -9.55,3.9 -3.9,4 -3.9,9.55 0,5.55 3.9,9.45 4,4 9.55,4 5.55,0 9.45,-4 4,-3.9 4,-9.45 0,-5.55 -4,-9.55 z"
         id="path6665" />
    </g>
    <g
       id="headFocus_0_Layer0_0_FILL">
      <path
         fill="#ffd7b1"
         stroke="none"
         d="m -24.15,-11.25 q -2.35,2.35 -2.35,5.7 0,3.35 2.35,5.7 2.4,2.4 5.65,2.4 3.3,0 5.7,-2.4 2.3,-2.35 2.3,-5.7 0,-3.35 -2.3,-5.7 -2.4,-2.45 -5.7,-2.45 -3.25,0 -5.65,2.45 m 2.3,9.15 q -1.4,-1.4 -1.4,-3.45 0,-1.95 1.4,-3.45 1.35,-1.4 3.35,-1.4 2.05,0 3.45,1.4 1.4,1.5 1.4,3.45 0,2.05 -1.4,3.45 -1.4,1.45 -3.45,1.45 -2,0 -3.35,-1.45 m 40.4,-11.6 q -3.25,0 -5.65,2.45 -2.35,2.35 -2.35,5.7 0,3.35 2.35,5.7 2.4,2.4 5.65,2.4 3.3,0 5.7,-2.4 2.3,-2.35 2.3,-5.7 0,-3.35 -2.3,-5.7 -2.4,-2.45 -5.7,-2.45 m 0,13.05 q -2,0 -3.35,-1.45 -1.45,-1.4 -1.45,-3.45 0,-1.95 1.45,-3.45 1.35,-1.4 3.35,-1.4 2,0 3.45,1.4 1.4,1.5 1.4,3.45 0,2.05 -1.4,3.45 -1.45,1.45 -3.45,1.45 z"
         id="path6668" />
      <path
         fill="#e7b687"
         stroke="none"
         d="m -23.25,-5.55 q 0,2.05 1.4,3.45 1.35,1.45 3.35,1.45 2.05,0 3.45,-1.45 1.4,-1.4 1.4,-3.45 0,-1.95 -1.4,-3.45 -1.4,-1.4 -3.45,-1.4 -2,0 -3.35,1.4 -1.4,1.5 -1.4,3.45 M 15.2,-2.1 q 1.35,1.45 3.35,1.45 2,0 3.45,-1.45 1.4,-1.4 1.4,-3.45 0,-1.95 -1.4,-3.45 -1.45,-1.4 -3.45,-1.4 -2,0 -3.35,1.4 -1.45,1.5 -1.45,3.45 0,2.05 1.45,3.45 z"
         id="path6670" />
    </g>
    <g
       id="headFocus_0_Layer0_1_FILL">
      <path
         fill="#ffd7b1"
         stroke="none"
         d="M 12.25,8.05 Q 17.65,7.3 18.4,2.2 L 21.05,-24 H -21 l 3.25,32.05 z"
         id="path6673" />
    </g>
    <g
       id="headFocus_0_Layer0_2_FILL">
      <path
         fill="#bf7958"
         stroke="none"
         d="M 20.4,-44.4 7.85,-32.25 q -17.1,-6.4 -34.4,5.1 l 7.95,11.55 v -5.15 q 0.8,-0.15 1.6,-0.35 0.15,0.05 0.3,0.1 5.25,2.35 12.75,2.35 7.45,0 12.7,-2.35 1.45,-0.65 2.5,-1.3 4.65,0.5 9.3,1.55 V -15 l 4.95,-9.6 q 1.95,-4.5 2.4,-8.65 Q 27,-39.4 20.4,-44.4 Z"
         id="path6676" />
      <path
         fill="#db855c"
         stroke="none"
         d="M 7.85,-32.25 20.4,-44.4 q 6.6,5 7.5,11.15 Q 29.05,-43.8 20.4,-52 L 7.85,-36.75 q -17.8,-8.3 -35.85,7.6 l 1.45,2 q 17.3,-11.5 34.4,-5.1 z"
         id="path6678" />
    </g>
    <g
       id="headFocus_0_Layer0_3_FILL">
      <path
         fill="#ffffff"
         stroke="none"
         d="m -12.45,-7.15 q 0,1.75 1.1,3.05 1.2,1.3 3,1.3 1.7,0 2.85,-1.3 1.2,-1.3 1.2,-3.05 0,-1.75 -1.2,-3 -1.15,-1.25 -2.85,-1.25 -1.8,0 -3,1.25 -1.1,1.25 -1.1,3 m 6.65,-2.5 q 0.7,1.05 0.7,2.5 0,1.5 -0.7,2.5 -0.7,1.1 -1.75,1.1 -1,0 -1.7,-1.1 -0.7,-1 -0.7,-2.5 0,-1.45 0.7,-2.5 0.7,-1.05 1.7,-1.05 1.05,0 1.75,1.05 M 8.6,-11.4 q -1.7,0 -2.95,1.25 -1.1,1.25 -1.1,3 0,1.75 1.1,3.05 1.25,1.3 2.95,1.3 1.75,0 2.85,-1.3 1.25,-1.3 1.25,-3.05 0,-1.75 -1.25,-3 -1.1,-1.25 -2.85,-1.25 m -3.5,4.25 q 0,-1.45 0.65,-2.5 0.8,-1.05 1.75,-1.05 1,0 1.65,1.05 0.75,1.05 0.75,2.5 0,1.5 -0.75,2.5 -0.65,1.1 -1.65,1.1 -0.95,0 -1.75,-1.1 -0.65,-1 -0.65,-2.5 z"
         id="path6681" />
      <path
         fill="#bf7958"
         stroke="none"
         d="m -5.1,-7.15 q 0,-1.45 -0.7,-2.5 -0.7,-1.05 -1.75,-1.05 -1,0 -1.7,1.05 -0.7,1.05 -0.7,2.5 0,1.5 0.7,2.5 0.7,1.1 1.7,1.1 1.05,0 1.75,-1.1 0.7,-1 0.7,-2.5 m 10.85,-2.5 q -0.65,1.05 -0.65,2.5 0,1.5 0.65,2.5 0.8,1.1 1.75,1.1 1,0 1.65,-1.1 0.75,-1 0.75,-2.5 0,-1.45 -0.75,-2.5 -0.65,-1.05 -1.65,-1.05 -0.95,0 -1.75,1.05 z"
         id="path6683" />
      <path
         fill="#e7b687"
         stroke="none"
         d="m 3.65,-4 q 0,-0.95 -1.05,-1.7 -1,-0.65 -2.45,-0.65 -1.4,0 -2.4,0.65 -0.95,0.75 -0.95,1.7 0,0.9 0.95,1.6 1,0.75 2.4,0.75 1.45,0 2.45,-0.75 1.05,-0.7 1.05,-1.6 z"
         id="path6685" />
    </g>
    <g
       id="headFocus_0_Layer0_3_MEMBER_0_FILL">
      <path
         fill="#bf7958"
         stroke="none"
         d="m -11.95,-16.2 -0.95,3.45 9.05,2.4 1,-3.45 z"
         id="path6688" />
    </g>
    <g
       id="headFocus_0_Layer0_3_MEMBER_1_FILL">
      <path
         fill="#bf7958"
         stroke="none"
         d="m 14.35,-12.85 -0.5,-3.55 -9.35,1.35 0.6,3.55 z"
         id="path6691" />
    </g>
    <g
       id="headFocus_0_Layer0_3_MEMBER_2_FILL">
      <path
         fill="#bf7958"
         stroke="none"
         d="M 1.1,4.65 1.6,2.75 -6.05,0.7 -6.55,2.65 Z"
         id="path6694" />
    </g>
    <g
       id="headFocus_0_Layer0_4_FILL">
      <path
         fill="#bf7958"
         stroke="none"
         d="m -22.3,-20.5 1.85,15.9 q 0.1,1 0.95,1.7 0.8,0.6 1.8,0.45 h 0.05 q 1,-0.1 1.6,-0.9 0.6,-0.85 0.5,-1.85 l -1.9,-15.9 q -0.15,-1.05 -0.95,-1.65 -0.75,-0.6 -1.75,-0.55 h -0.05 q -0.95,0.15 -1.6,1 -0.65,0.75 -0.5,1.8 m 40.75,-2.25 q -0.8,0.6 -0.95,1.65 l -1.85,15.9 q -0.1,1 0.5,1.85 0.55,0.8 1.55,0.9 h 0.05 q 1,0.15 1.8,-0.45 0.85,-0.7 0.95,-1.7 l 1.9,-15.9 q 0.15,-1.05 -0.5,-1.8 -0.65,-0.85 -1.65,-1 H 20.2 q -1,-0.05 -1.75,0.55 z"
         id="path6697" />
    </g>
    <g
       id="headShock_0_Layer0_0_FILL">
      <path
         fill="#ffd7b1"
         stroke="none"
         d="m -24.15,-11.25 q -2.35,2.35 -2.35,5.7 0,3.35 2.35,5.7 2.4,2.4 5.65,2.4 3.3,0 5.7,-2.4 2.3,-2.35 2.3,-5.7 0,-3.35 -2.3,-5.7 -2.4,-2.45 -5.7,-2.45 -3.25,0 -5.65,2.45 m 2.3,9.15 q -1.4,-1.4 -1.4,-3.45 0,-1.95 1.4,-3.45 1.35,-1.4 3.35,-1.4 2.05,0 3.45,1.4 1.4,1.5 1.4,3.45 0,2.05 -1.4,3.45 -1.4,1.45 -3.45,1.45 -2,0 -3.35,-1.45 m 34.75,-9.15 q -2.35,2.35 -2.35,5.7 0,3.35 2.35,5.7 2.4,2.4 5.65,2.4 3.3,0 5.7,-2.4 2.3,-2.35 2.3,-5.7 0,-3.35 -2.3,-5.7 -2.4,-2.45 -5.7,-2.45 -3.25,0 -5.65,2.45 M 15.2,-9 q 1.35,-1.4 3.35,-1.4 2,0 3.45,1.4 1.4,1.5 1.4,3.45 0,2.05 -1.4,3.45 -1.45,1.45 -3.45,1.45 -2,0 -3.35,-1.45 -1.45,-1.4 -1.45,-3.45 0,-1.95 1.45,-3.45 z"
         id="path6700" />
      <path
         fill="#e7b687"
         stroke="none"
         d="m -23.25,-5.55 q 0,2.05 1.4,3.45 1.35,1.45 3.35,1.45 2.05,0 3.45,-1.45 1.4,-1.4 1.4,-3.45 0,-1.95 -1.4,-3.45 -1.4,-1.4 -3.45,-1.4 -2,0 -3.35,1.4 -1.4,1.5 -1.4,3.45 m 41.8,-4.85 q -2,0 -3.35,1.4 -1.45,1.5 -1.45,3.45 0,2.05 1.45,3.45 1.35,1.45 3.35,1.45 2,0 3.45,-1.45 1.4,-1.4 1.4,-3.45 0,-1.95 -1.4,-3.45 -1.45,-1.4 -3.45,-1.4 z"
         id="path6702" />
    </g>
    <g
       id="headShock_0_Layer0_1_FILL">
      <path
         fill="#ffd7b1"
         stroke="none"
         d="M 12.25,8.05 Q 17.65,7.3 18.4,2.2 L 21.05,-24 H -21 l 3.25,32.05 z"
         id="path6705" />
    </g>
    <g
       id="headShock_0_Layer0_2_FILL">
      <path
         fill="#bf7958"
         stroke="none"
         d="M 20.4,-44.4 7.85,-32.25 q -17.1,-6.4 -34.4,5.1 l 7.95,11.55 v -5.15 q 0.8,-0.15 1.6,-0.35 0.15,0.05 0.3,0.1 5.25,2.35 12.75,2.35 7.45,0 12.7,-2.35 1.45,-0.65 2.5,-1.3 4.65,0.5 9.3,1.55 V -15 l 4.95,-9.6 q 1.95,-4.5 2.4,-8.65 Q 27,-39.4 20.4,-44.4 Z"
         id="path6708" />
      <path
         fill="#db855c"
         stroke="none"
         d="M 7.85,-32.25 20.4,-44.4 q 6.6,5 7.5,11.15 Q 29.05,-43.8 20.4,-52 L 7.85,-36.75 q -17.8,-8.3 -35.85,7.6 l 1.45,2 q 17.3,-11.5 34.4,-5.1 z"
         id="path6710" />
    </g>
    <g
       id="headShock_0_Layer0_3_FILL">
      <path
         fill="#ffffff"
         stroke="none"
         d="m -12.45,-7.15 q 0,1.75 1.1,3.05 1.2,1.3 3,1.3 1.7,0 2.85,-1.3 1.2,-1.3 1.2,-3.05 0,-1.75 -1.2,-3 -1.15,-1.25 -2.85,-1.25 -1.8,0 -3,1.25 -1.1,1.25 -1.1,3 m 6.65,-2.5 q 0.7,1.05 0.7,2.5 0,1.5 -0.7,2.5 -0.7,1.1 -1.75,1.1 -1,0 -1.7,-1.1 -0.7,-1 -0.7,-2.5 0,-1.45 0.7,-2.5 0.7,-1.05 1.7,-1.05 1.05,0 1.75,1.05 M 8.6,-11.4 q -1.7,0 -2.95,1.25 -1.1,1.25 -1.1,3 0,1.75 1.1,3.05 1.25,1.3 2.95,1.3 1.75,0 2.85,-1.3 1.25,-1.3 1.25,-3.05 0,-1.75 -1.25,-3 -1.1,-1.25 -2.85,-1.25 m 0.55,1.75 q 0.75,1.05 0.75,2.5 0,1.5 -0.75,2.5 -0.65,1.1 -1.65,1.1 -0.95,0 -1.75,-1.1 -0.65,-1 -0.65,-2.5 0,-1.45 0.65,-2.5 0.8,-1.05 1.75,-1.05 1,0 1.65,1.05 z"
         id="path6713" />
      <path
         fill="#bf7958"
         stroke="none"
         d="m -5.1,-7.15 q 0,-1.45 -0.7,-2.5 -0.7,-1.05 -1.75,-1.05 -1,0 -1.7,1.05 -0.7,1.05 -0.7,2.5 0,1.5 0.7,2.5 0.7,1.1 1.7,1.1 1.05,0 1.75,-1.1 0.7,-1 0.7,-2.5 m 15,0 Q 9.9,-8.6 9.15,-9.65 8.5,-10.7 7.5,-10.7 q -0.95,0 -1.75,1.05 -0.65,1.05 -0.65,2.5 0,1.5 0.65,2.5 0.8,1.1 1.75,1.1 1,0 1.65,-1.1 0.75,-1 0.75,-2.5 z"
         id="path6715" />
      <path
         fill="#e7b687"
         stroke="none"
         d="m 3.65,-4 q 0,-0.95 -1.05,-1.7 -1,-0.65 -2.45,-0.65 -1.4,0 -2.4,0.65 -0.95,0.75 -0.95,1.7 0,0.9 0.95,1.6 1,0.75 2.4,0.75 1.45,0 2.45,-0.75 1.05,-0.7 1.05,-1.6 z"
         id="path6717" />
    </g>
    <g
       id="headShock_0_Layer0_3_MEMBER_0_FILL">
      <path
         fill="#bf7958"
         stroke="none"
         d="m -3.4,-14 -0.95,-3.45 -9.1,2.4 1,3.45 z"
         id="path6720" />
    </g>
    <g
       id="headShock_0_Layer0_3_MEMBER_1_FILL">
      <path
         fill="#bf7958"
         stroke="none"
         d="m 4.95,-19.4 -0.5,3.55 9.25,1.35 0.6,-3.55 z"
         id="path6723" />
    </g>
    <g
       id="headShock_0_Layer0_3_MEMBER_2_FILL">
      <path
         fill="#bf7958"
         stroke="none"
         d="M 1.25,4.25 Q 2,3.5 2,2.5 2,1.45 1.25,0.75 0.6,0 -0.5,0 -1.55,0 -2.3,0.75 -3,1.45 -3,2.5 -3,3.5 -2.3,4.25 -1.55,5 -0.5,5 0.6,5 1.25,4.25 Z"
         id="path6726" />
    </g>
    <g
       id="headShock_0_Layer0_4_FILL">
      <path
         fill="#bf7958"
         stroke="none"
         d="m -22.3,-20.5 1.85,15.9 q 0.1,1 0.95,1.7 0.8,0.6 1.8,0.45 h 0.05 q 1,-0.1 1.6,-0.9 0.6,-0.85 0.5,-1.85 l -1.9,-15.9 q -0.15,-1.05 -0.95,-1.65 -0.75,-0.6 -1.75,-0.55 h -0.05 q -0.95,0.15 -1.6,1 -0.65,0.75 -0.5,1.8 m 40.75,-2.25 q -0.8,0.6 -0.95,1.65 l -1.85,15.9 q -0.1,1 0.5,1.85 0.55,0.8 1.55,0.9 h 0.05 q 1,0.15 1.8,-0.45 0.85,-0.7 0.95,-1.7 l 1.9,-15.9 q 0.15,-1.05 -0.5,-1.8 -0.65,-0.85 -1.65,-1 H 20.2 q -1,-0.05 -1.75,0.55 z"
         id="path6729" />
    </g>
    <g
       id="headBack_0_Layer0_0_FILL">
      <path
         fill="#ffd7b1"
         stroke="none"
         d="m -24.15,-11.25 q -2.35,2.35 -2.35,5.7 0,3.35 2.35,5.7 2.4,2.4 5.65,2.4 3.3,0 5.7,-2.4 2.3,-2.35 2.3,-5.7 0,-3.35 -2.3,-5.7 -2.4,-2.45 -5.7,-2.45 -3.25,0 -5.65,2.45 m 2.3,9.15 q -1.4,-1.4 -1.4,-3.45 0,-1.95 1.4,-3.45 1.35,-1.4 3.35,-1.4 2.05,0 3.45,1.4 1.4,1.5 1.4,3.45 0,2.05 -1.4,3.45 -1.4,1.45 -3.45,1.45 -2,0 -3.35,-1.45 m 40.4,-11.6 q -3.25,0 -5.65,2.45 -2.35,2.35 -2.35,5.7 0,3.35 2.35,5.7 2.4,2.4 5.65,2.4 3.3,0 5.7,-2.4 2.3,-2.35 2.3,-5.7 0,-3.35 -2.3,-5.7 -2.4,-2.45 -5.7,-2.45 m 0,13.05 q -2,0 -3.35,-1.45 -1.45,-1.4 -1.45,-3.45 0,-1.95 1.45,-3.45 1.35,-1.4 3.35,-1.4 2,0 3.45,1.4 1.4,1.5 1.4,3.45 0,2.05 -1.4,3.45 -1.45,1.45 -3.45,1.45 z"
         id="path6732" />
      <path
         fill="#e7b687"
         stroke="none"
         d="m -23.25,-5.55 q 0,2.05 1.4,3.45 1.35,1.45 3.35,1.45 2.05,0 3.45,-1.45 1.4,-1.4 1.4,-3.45 0,-1.95 -1.4,-3.45 -1.4,-1.4 -3.45,-1.4 -2,0 -3.35,1.4 -1.4,1.5 -1.4,3.45 M 15.2,-2.1 q 1.35,1.45 3.35,1.45 2,0 3.45,-1.45 1.4,-1.4 1.4,-3.45 0,-1.95 -1.4,-3.45 -1.45,-1.4 -3.45,-1.4 -2,0 -3.35,1.4 -1.45,1.5 -1.45,3.45 0,2.05 1.45,3.45 z"
         id="path6734" />
    </g>
    <g
       id="headBack_0_Layer0_1_FILL">
      <path
         fill="#ffd7b1"
         stroke="none"
         d="M 12.25,8.05 Q 17.65,7.3 18.4,2.2 L 21.05,-24 H -21 l 3.25,32.05 z"
         id="path6737" />
    </g>
    <g
       id="headBack_0_Layer0_2_FILL">
      <path
         fill="#bf7958"
         stroke="none"
         d="m -22.3,-20.5 1.85,15.9 q 0.1,1 0.95,1.7 0.8,0.6 1.8,0.45 h 0.05 q 1,-0.1 1.6,-0.9 0.6,-0.85 0.5,-1.85 l -1.9,-15.9 q -0.15,-1.05 -0.95,-1.65 -0.75,-0.6 -1.75,-0.55 h -0.05 q -0.95,0.15 -1.6,1 -0.65,0.75 -0.5,1.8 m 40.75,-2.25 q -0.8,0.6 -0.95,1.65 l -1.85,15.9 q -0.1,1 0.5,1.85 0.55,0.8 1.55,0.9 h 0.05 q 1,0.15 1.8,-0.45 0.85,-0.7 0.95,-1.7 l 1.9,-15.9 q 0.15,-1.05 -0.5,-1.8 -0.65,-0.85 -1.65,-1 H 20.2 q -1,-0.05 -1.75,0.55 z"
         id="path6740" />
    </g>
    <g
       id="headBack_0_Layer0_3_FILL">
      <path
         fill="#bf7958"
         stroke="none"
         d="m 17.55,-1.05 h 0.05 q 1,0.15 1.8,-0.45 0.85,-0.7 0.95,-1.6 l 1.9,-15.6 q 0.05,-0.2 0,-0.4 l 5.35,-7.55 q -17.3,-11.25 -34.4,-5 l -12.5,-11.9 q -6.65,4.9 -7.55,10.9 0.45,4.05 2.45,8.45 l 1.45,3.8 1.95,15.6 q 0.05,0.95 0.9,1.55 0.8,0.65 1.8,0.5 17.95,4.6640625 35.85,1.7 z"
         id="path6743" />
      <path
         fill="#db855c"
         stroke="none"
         d="m 27.6,-26.65 1.4,-2 Q 11,-44.2 -6.8,-36.05 L -19.3,-51 q -8.7,8.05 -7.55,18.35 0.9,-6 7.55,-10.9 l 12.5,11.9 q 17.1,-6.25 34.4,5 z"
         id="path6745" />
    </g>
    <g
       id="head_0_Layer0_0_FILL">
      <path
         fill="#ffd7b1"
         stroke="none"
         d="m -24.15,-11.25 q -2.35,2.35 -2.35,5.7 0,3.35 2.35,5.7 2.4,2.4 5.65,2.4 3.3,0 5.7,-2.4 2.3,-2.35 2.3,-5.7 0,-3.35 -2.3,-5.7 -2.4,-2.45 -5.7,-2.45 -3.25,0 -5.65,2.45 m 2.3,9.15 q -1.4,-1.4 -1.4,-3.45 0,-1.95 1.4,-3.45 1.35,-1.4 3.35,-1.4 2.05,0 3.45,1.4 1.4,1.5 1.4,3.45 0,2.05 -1.4,3.45 -1.4,1.45 -3.45,1.45 -2,0 -3.35,-1.45 m 40.4,-11.6 q -3.25,0 -5.65,2.45 -2.35,2.35 -2.35,5.7 0,3.35 2.35,5.7 2.4,2.4 5.65,2.4 3.3,0 5.7,-2.4 2.3,-2.35 2.3,-5.7 0,-3.35 -2.3,-5.7 -2.4,-2.45 -5.7,-2.45 m 0,13.05 q -2,0 -3.35,-1.45 -1.45,-1.4 -1.45,-3.45 0,-1.95 1.45,-3.45 1.35,-1.4 3.35,-1.4 2,0 3.45,1.4 1.4,1.5 1.4,3.45 0,2.05 -1.4,3.45 -1.45,1.45 -3.45,1.45 z"
         id="path6748" />
      <path
         fill="#e7b687"
         stroke="none"
         d="m -23.25,-5.55 q 0,2.05 1.4,3.45 1.35,1.45 3.35,1.45 2.05,0 3.45,-1.45 1.4,-1.4 1.4,-3.45 0,-1.95 -1.4,-3.45 -1.4,-1.4 -3.45,-1.4 -2,0 -3.35,1.4 -1.4,1.5 -1.4,3.45 M 15.2,-2.1 q 1.35,1.45 3.35,1.45 2,0 3.45,-1.45 1.4,-1.4 1.4,-3.45 0,-1.95 -1.4,-3.45 -1.45,-1.4 -3.45,-1.4 -2,0 -3.35,1.4 -1.45,1.5 -1.45,3.45 0,2.05 1.45,3.45 z"
         id="path6750" />
    </g>
    <g
       id="head_0_Layer0_1_FILL">
      <path
         fill="#ffd7b1"
         stroke="none"
         d="M 12.25,8.05 Q 17.65,7.3 18.4,2.2 L 21.05,-24 H -21 l 3.25,32.05 z"
         id="path6753" />
    </g>
    <g
       id="head_0_Layer0_2_FILL">
      <path
         fill="#bf7958"
         stroke="none"
         d="M 20.4,-44.4 7.85,-32.25 q -17.1,-6.4 -34.4,5.1 l 7.95,11.55 v -5.15 q 0.8,-0.15 1.6,-0.35 0.15,0.05 0.3,0.1 5.25,2.35 12.75,2.35 7.45,0 12.7,-2.35 1.45,-0.65 2.5,-1.3 4.65,0.5 9.3,1.55 V -15 l 4.95,-9.6 q 1.95,-4.5 2.4,-8.65 Q 27,-39.4 20.4,-44.4 Z"
         id="path6756" />
      <path
         fill="#db855c"
         stroke="none"
         d="M 7.85,-32.25 20.4,-44.4 q 6.6,5 7.5,11.15 Q 29.05,-43.8 20.4,-52 L 7.85,-36.75 q -17.8,-8.3 -35.85,7.6 l 1.45,2 q 17.3,-11.5 34.4,-5.1 z"
         id="path6758" />
    </g>
    <g
       id="head_0_Layer0_3_FILL">
      <path
         fill="#bf7958"
         stroke="none"
         d="m -3.4,-14.5 -0.95,-3.45 -9.1,2.4 1,3.45 z"
         id="path6761" />
    </g>
    <g
       id="head_0_Layer0_4_FILL">
      <path
         fill="#ffffff"
         stroke="none"
         d="m -12.45,-7.15 q 0,1.75 1.1,3.05 1.2,1.3 3,1.3 1.7,0 2.85,-1.3 1.2,-1.3 1.2,-3.05 0,-1.75 -1.2,-3 -1.15,-1.25 -2.85,-1.25 -1.8,0 -3,1.25 -1.1,1.25 -1.1,3 m 6.65,-2.5 q 0.7,1.05 0.7,2.5 0,1.5 -0.7,2.5 -0.7,1.1 -1.75,1.1 -1,0 -1.7,-1.1 -0.7,-1 -0.7,-2.5 0,-1.45 0.7,-2.5 0.7,-1.05 1.7,-1.05 1.05,0 1.75,1.05 M 8.6,-11.4 q -1.7,0 -2.95,1.25 -1.1,1.25 -1.1,3 0,1.75 1.1,3.05 1.25,1.3 2.95,1.3 1.75,0 2.85,-1.3 1.25,-1.3 1.25,-3.05 0,-1.75 -1.25,-3 -1.1,-1.25 -2.85,-1.25 m -3.5,4.25 q 0,-1.45 0.65,-2.5 0.8,-1.05 1.75,-1.05 1,0 1.65,1.05 0.75,1.05 0.75,2.5 0,1.5 -0.75,2.5 -0.65,1.1 -1.65,1.1 -0.95,0 -1.75,-1.1 -0.65,-1 -0.65,-2.5 z"
         id="path6764" />
      <path
         fill="#bf7958"
         stroke="none"
         d="m -5.1,-7.15 q 0,-1.45 -0.7,-2.5 -0.7,-1.05 -1.75,-1.05 -1,0 -1.7,1.05 -0.7,1.05 -0.7,2.5 0,1.5 0.7,2.5 0.7,1.1 1.7,1.1 1.05,0 1.75,-1.1 0.7,-1 0.7,-2.5 m 10.85,-2.5 q -0.65,1.05 -0.65,2.5 0,1.5 0.65,2.5 0.8,1.1 1.75,1.1 1,0 1.65,-1.1 0.75,-1 0.75,-2.5 0,-1.45 -0.75,-2.5 -0.65,-1.05 -1.65,-1.05 -0.95,0 -1.75,1.05 z"
         id="path6766" />
    </g>
    <g
       id="head_0_Layer0_5_FILL">
      <path
         fill="#bf7958"
         stroke="none"
         d="m 4.95,-15.15 -0.5,3.55 9.25,1.35 0.6,-3.55 z"
         id="path6769" />
    </g>
    <g
       id="head_0_Layer0_6_FILL">
      <path
         fill="#e7b687"
         stroke="none"
         d="m 2.6,-2.4 q 1.05,-0.7 1.05,-1.6 0,-0.95 -1.05,-1.7 -1,-0.65 -2.45,-0.65 -1.4,0 -2.4,0.65 -0.95,0.75 -0.95,1.7 0,0.9 0.95,1.6 1,0.75 2.4,0.75 1.45,0 2.45,-0.75 z"
         id="path6772" />
    </g>
    <g
       id="head_0_Layer0_7_FILL">
      <path
         fill="#bf7958"
         stroke="none"
         d="m -22.3,-20.5 1.85,15.9 q 0.1,1 0.95,1.7 0.8,0.6 1.8,0.45 h 0.05 q 1,-0.1 1.6,-0.9 0.6,-0.85 0.5,-1.85 l -1.9,-15.9 q -0.15,-1.05 -0.95,-1.65 -0.75,-0.6 -1.75,-0.55 h -0.05 q -0.95,0.15 -1.6,1 -0.65,0.75 -0.5,1.8 m 40.75,-2.25 q -0.8,0.6 -0.95,1.65 l -1.85,15.9 q -0.1,1 0.5,1.85 0.55,0.8 1.55,0.9 h 0.05 q 1,0.15 1.8,-0.45 0.85,-0.7 0.95,-1.7 l 1.9,-15.9 q 0.15,-1.05 -0.5,-1.8 -0.65,-0.85 -1.65,-1 H 20.2 q -1,-0.05 -1.75,0.55 z"
         id="path6775" />
    </g>
    <g
       id="head_0_Layer0_8_FILL">
      <path
         fill="#ffffff"
         stroke="none"
         d="M 2.75,3.2 V 0 H -4.9 q -0.35,0 -0.65,0.25 -0.35,0.15 -0.4,0.5 -0.1,0.25 0,0.65 0.05,0.5 0.35,1.05 0.25,0.35 0.55,0.75 z"
         id="path6778" />
      <path
         fill="#bf7958"
         stroke="none"
         d="M 6.55,0.25 Q 6.25,0 5.9,0 H 2.75 v 3.2 h -7.8 q 0.3,0.55 0.8,0.9 Q -2.3,6 0.5,6 3.2,6 5.2,4.15 L 5.3,4.1 Q 6.05,3.4 6.55,2.45 6.85,1.9 7,1.4 7.05,1 6.95,0.75 6.85,0.4 6.55,0.25 Z"
         id="path6780" />
    </g>
    <radialGradient
       id="Gradient_1-5"
       gradientUnits="userSpaceOnUse"
       cx="0"
       cy="0"
       r="13.5875"
       fx="0"
       fy="0"
       spreadMethod="pad">
      <stop
         offset="0%"
         stop-color="#000000"
         stop-opacity="0.30196078431372547"
         id="stop6565-3" />
      <stop
         offset="100%"
         stop-color="#000000"
         stop-opacity="0"
         id="stop6567-5" />
    </radialGradient>
    <radialGradient
       id="radialGradient11474"
       gradientUnits="userSpaceOnUse"
       cx="0"
       cy="0"
       r="13.5875"
       fx="0"
       fy="0"
       spreadMethod="pad">
      <stop
         offset="0%"
         stop-color="#000000"
         stop-opacity="0.30196078431372547"
         id="stop11470" />
      <stop
         offset="100%"
         stop-color="#000000"
         stop-opacity="0"
         id="stop11472" />
    </radialGradient>
  </defs>
  <g
     filter="url(#Filter_1)"
     id="g11338"
     transform="translate(-300.84412,-386.7405)">
    <g
       id="poses">
      <g
         transform="matrix(1,0,0.16304016,1,341.27921,464.91981)"
         id="g9287">
        <g
           id="g9285">
          <use
             xlink:href="#leg_0_Layer0_0_FILL"
             id="use9283" />
        </g>
      </g>
      <g
         transform="matrix(-1,0,-0.10868835,1,324.77921,464.91981)"
         id="g9293">
        <g
           id="g9291">
          <use
             xlink:href="#leg_0_Layer0_0_FILL"
             id="use9289" />
        </g>
      </g>
      <g
         transform="matrix(-1,0,0,1,317.52921,446.71981)"
         id="g9303">
        <g
           id="g9297">
          <use
             xlink:href="#arm_0_Layer0_0_FILL"
             id="use9295" />
        </g>
        <g
           id="g9301">
          <use
             xlink:href="#arm_0_Layer0_0_MEMBER_0_FILL"
             id="use9299" />
        </g>
      </g>
      <g
         transform="matrix(0.99659729,-0.08241272,0.08241272,0.99659729,332.77921,463.66981)"
         id="g9321">
        <g
           id="g9307">
          <use
             xlink:href="#body_0_Layer0_0_FILL"
             id="use9305" />
        </g>
        <g
           id="g9311">
          <use
             xlink:href="#body_0_Layer0_1_FILL"
             id="use9309" />
        </g>
        <g
           id="g9315">
          <use
             xlink:href="#body_0_Layer0_2_FILL"
             id="use9313" />
        </g>
        <g
           id="g9319">
          <use
             xlink:href="#body_0_Layer0_3_FILL"
             id="use9317" />
        </g>
      </g>
      <g
         transform="matrix(0.99153137,0.12985229,-0.12985229,0.99153137,334.22921,439.86981)"
         id="g9355">
        <g
           id="g9325">
          <use
             xlink:href="#headShock_0_Layer0_0_FILL"
             id="use9323" />
        </g>
        <g
           id="g9329">
          <use
             xlink:href="#headShock_0_Layer0_1_FILL"
             id="use9327" />
        </g>
        <g
           id="g9333">
          <use
             xlink:href="#headShock_0_Layer0_2_FILL"
             id="use9331" />
        </g>
        <g
           id="g9337">
          <use
             xlink:href="#headShock_0_Layer0_3_FILL"
             id="use9335" />
        </g>
        <g
           id="g9341">
          <use
             xlink:href="#headShock_0_Layer0_3_MEMBER_0_FILL"
             id="use9339" />
        </g>
        <g
           id="g9345">
          <use
             xlink:href="#headShock_0_Layer0_3_MEMBER_1_FILL"
             id="use9343" />
        </g>
        <g
           id="g9349">
          <use
             xlink:href="#headShock_0_Layer0_3_MEMBER_2_FILL"
             id="use9347" />
        </g>
        <g
           id="g9353">
          <use
             xlink:href="#headShock_0_Layer0_4_FILL"
             id="use9351" />
        </g>
      </g>
      <g
         transform="matrix(1.248642,0,0,0.82835388,331.92921,453.26981)"
         id="g9361">
        <g
           id="g9359">
          <use
             xlink:href="#shadow_0_Layer0_0_FILL"
             id="use9357" />
        </g>
      </g>
      <g
         transform="matrix(-0.2588501,0.96591187,-0.96591187,-0.2588501,352.07921,453.26981)"
         id="g9371">
        <g
           id="g9365">
          <use
             xlink:href="#arm_0_Layer0_0_FILL"
             id="use9363" />
        </g>
        <g
           id="g9369">
          <use
             xlink:href="#arm_0_Layer0_0_MEMBER_0_FILL"
             id="use9367" />
        </g>
      </g>
      <g
         transform="matrix(-0.38363647,0.92347717,-0.92347717,-0.38363647,331.37921,456.36981)"
         id="g9377">
        <g
           id="g9375">
          <use
             xlink:href="#hand_0_Layer0_0_FILL"
             id="use9373" />
        </g>
      </g>
      <g
         transform="matrix(-1,0,0,1,308.72921,466.91981)"
         id="g9383">
        <g
           id="g9381">
          <use
             xlink:href="#hand_0_Layer0_0_FILL"
             id="use9379" />
        </g>
      </g>
    </g>
  </g>
</svg>
